<?xml version="1.0" encoding="utf-8"?>
<!-- Generator: Adobe Illustrator 18.1.1, SVG Export Plug-In . SVG Version: 6.00 Build 0)  -->
<svg version="1.2" baseProfile="tiny" id="Layer_1" xmlns="http://www.w3.org/2000/svg" xmlns:xlink="http://www.w3.org/1999/xlink"
	 x="0px" y="0px" viewBox="0 0 293 371" xml:space="preserve">
<g>
	<path fill="#726D68" d="M179.6,140.5l-7,13c-0.8,1.4-2.2,1.3-3.6,0.5l-5-2.6l3.8,19.9c0.8,3.6-1.7,3.6-3,2.1l-8.8-9.8l-1.4,5
		c-0.2,0.7-0.9,1.3-2,1.2l-11.1-2.3l2.9,10.6c0.6,2.4,1.1,3.3-0.6,4l-4,1.9l19.1,15.5c0.8,0.6,1.1,1.6,0.9,2.6l-1.7,5.5
		c6.6-0.8,12.5-1.9,19.1-2.6c0.6-0.1,1.6,0.9,1.6,1.6l-0.9,20.1h3.2l-0.5-20.1c0-0.7,0.9-1.7,1.5-1.6c6.6,0.7,12.5,1.8,19.1,2.6
		l-1.7-5.5c-0.3-1,0.1-2,0.9-2.6l19.1-15.5l-4-1.9c-1.7-0.6-1.3-1.6-0.6-4l2.9-10.6l-11.1,2.3c-1.1,0.2-1.8-0.5-2-1.2l-1.4-5
		l-8.8,9.8c-1.2,1.6-3.8,1.6-3-2.1l3.8-19.9l-5,2.6c-1.4,0.8-2.8,0.9-3.6-0.5"/>
</g>
<rect x="221" y="225" fill="#726D68" width="72" height="72"/>
<g>
	<rect y="155" fill="#726D68" width="72" height="72"/>
	<rect y="299" fill="#726D68" width="72" height="72"/>
	<rect x="72" y="227" fill="#89B4E0" width="72" height="72"/>
</g>
<rect x="221" y="72" fill="#89B4E0" width="72" height="72"/>
<rect x="149" fill="#89B4E0" width="72" height="72"/>
</svg>
