<?xml version="1.0" encoding="UTF-8"?><svg id="a" xmlns="http://www.w3.org/2000/svg" viewBox="0 0 284.9 330.3"><defs><style>.de{fill:#1b2a98;stroke:#1b2a98;}.de,.df{stroke-miterlimit:8.9;stroke-width:0px;}.dg{stroke-miterlimit:9.2;stroke-width:0px;}.dg,.df{fill:#014189;stroke:#014189;}</style></defs><g id="b"><path id="c" class="df" d="M140.5,0h3.9c21.9.4,43.6,6.6,62.4,17.8,22.3,13.1,40.5,32.5,53.6,54.7,32.5,55.6,32.7,128.6.5,184.4-12,20.7-28.4,39-48.5,52.1-20.1,13.3-43.9,20.9-68,21.3h-3.8c-16.7-.3-33.3-4-48.6-10.7-29.5-12.9-53.4-36.7-69-64.6C8.2,228.7.7,198.7,0,168.6v-6.4c.5-25,5.6-49.9,15.8-72.8,12-26.9,30.9-50.9,55.5-67.4C91.7,8.4,115.9.5,140.5,0h0ZM127.1,3.1c-23.9,3-46.7,13.4-65.3,28.6-20.4,16.6-35.9,38.7-45.9,62.9-18.4,44.6-18.3,96.4,0,141,9,21.7,22.4,41.7,39.8,57.6,20.8,19.2,47.8,32.1,76.1,34.4,27.8,2.6,56.2-5.1,79.4-20.4,19-12.4,34.7-29.5,46.4-49,16.2-27,24.6-58.4,25.1-89.8.7-38.3-10.4-77.1-33-108.3-14.5-19.9-33.7-36.6-56.3-46.8C172.9,3.8,149.6.3,127.1,3.1h0Z"/></g><path id="d" class="dg" d="M139.5,8.3c3.4-2.7,8.1-2.4,12.1-1.4.1,1.6.2,3.2.2,4.7-1.4-1.1-1.7-3.1-3.4-3.8-2.3-1.1-5.4-.3-6.6,2-1.3,2.6-1.3,5.8.1,8.4,1.1,2,3.9,3.4,6.1,2.2.5-1.4.2-3,.2-4.5-.9-.2-1.8-.3-2.7-.5v-.9c2.8.2,5.7-.3,8.4.6-.5.3-1.4.8-1.9,1,0,1.7,0,3.4,0,5.1-4.1,1-8.9,1.4-12.4-1.3-3.7-2.7-3.6-9,0-11.7h0Z"/><path id="e" class="dg" d="M125.4,8.3c2.1-1.4,4.9-1.2,7.3-1.6-.7.8-1.7,1.3-2.2,2.3-.3,4,2.1,8.3-.1,11.9-2.3,2.8-7.1,3.7-10.1,1.6-3-3.2-1.8-8.1-3.6-11.7-.8-.2-1.7-.4-2.5-.6,2.7-1.4,5.9-1.4,8.9-1.8-.7.7-1.6,1.2-2.2,2,0,2.5.6,5,1.1,7.4.4,1.6,1.2,3.4,2.9,3.9,2.2.7,4.7-.8,4.9-3.1.3-3-.4-6-1.2-8.8-.2-1.5-2.2-.9-3.1-1.4h0Z"/><g id="f"><path id="g" class="df" d="M159.4,7.5c4.4,1,9.3,1.3,13.2,3.7,4.2,2.7,3.1,9.6-1,11.8-3,1.7-6.5,1.1-9.7.4-2-.5-4.1-.6-5.9-1.8,1-.5,2.9,0,3.1-1.4.9-3.1,1.5-6.3,2.1-9.4.6-1.5-1.1-2.3-1.9-3.4ZM165.2,10c-.8,3.7-1.9,7.4-2.4,11.2-.1,1.8,2.4,1.8,3.7,1.7,4-.6,5.4-5.6,4.7-9.1-.7-2.6-3.6-3.5-6-3.7h0Z"/></g><path id="h" class="dg" d="M98,15.2c2.9-1,5.7-2.7,8.8-2.7-.7.7-1.6,1.2-2.2,2.1.8,3.4,2.1,6.7,3.3,10,.4,1.8,2.5,1,3.7.5,2.2-.6,1.7-3.3,2.7-4.9.5,1.6.7,3.3,1,5-4.2,1.3-8.3,3.1-12.6,4.1.7-.8,1.5-1.5,2.1-2.4-.8-3.4-2.1-6.6-3.2-9.9-.3-1.7-2.2-1.4-3.4-1.8Z"/><path id="i" class="dg" d="M180.9,12.7c2.8,1.1,5.7,2.1,8.3,3.7-.9,0-1.9.2-2.8.4-1.2,1.6-1.8,3.4-2.5,5.2-.7,1.9-1.6,4.1-.6,6,1.2,2.2,4.5,2.6,6.1.6,1.8-2.2,2.8-5,3.7-7.7.7-1.5-1.1-2.5-1.8-3.6,2.4.7,4.9,1.6,6.9,3.1-.9,0-1.8.2-2.7.3-2.7,3.2-2.8,8.4-6.9,10.3-3.5,1-8.3-.9-9.3-4.6-.3-4,2.6-7.3,3.4-11-.5-.9-1.2-1.7-1.7-2.6h0Z"/><path id="j" class="dg" d="M89.2,22.7c2.6-1.3,5.9,1.4,5.2,4.2-.4,2.8-4.2,3.9-6.1,2-2-1.6-1.5-5.1.9-6.2Z"/><path id="k" class="dg" d="M201.3,22.1c1.9.7,3.5,1.9,5.1,3,.7,4.5,1.4,9,2.1,13.5,1.5-2.3,3.4-4.5,4.3-7.2-.4-1-1-1.9-1.5-2.9,2.3,1.2,4.4,2.7,6.4,4.2-1.1,0-2.1,0-3.2,0-3,3.4-5.2,7.4-7.8,11-.3-.2-1-.7-1.4-1-.7-5-1.4-10-2.1-15-1.7,2.6-3.7,5.1-4.9,8,.4,1,1.1,1.8,1.7,2.8-2.5-.8-4.5-2.5-6.5-4.1,1,0,1.9,0,2.9,0,1.3-.8,2-2.3,3-3.5,1.3-2.1,3-4,3.6-6.5-.6-.8-1.2-1.6-1.8-2.5h0Z"/><g id="l"><path id="m" class="df" d="M72.7,29.4c.1-.4.4-1.1.5-1.5,4,2.4,7.8,5.1,11.7,7.5,1.3.9,2.9.3,4.3.4-2.2,1.8-4.6,3.5-7,4.9.3-.8.5-1.6.8-2.3-1-.7-1.9-1.3-2.9-2-1.3.9-2.6,1.8-3.9,2.7.4,1.1.7,2.2,1.1,3.2.5,0,1.5-.2,2-.3l.4.6c-1.8,1.3-3.6,2.6-5.6,3.6.4-1.3,1.4-2.6,1.1-4-.7-4.3-1.9-8.5-2.6-12.9ZM74.6,32.7c.4,1.7.8,3.4,1.3,5.1,1-.7,2.1-1.4,3.1-2.1-1.4-1-2.9-2-4.4-3Z"/></g><g id="n"><path id="o" class="df" d="M99.7,39.5c10.4-7.9,23.8-10.4,36.6-11.1,14.2-.7,29.2.7,41.8,8.1,11.5,6.6,19.3,19.4,19.3,32.7,0,17.2,0,34.4,0,51.6-1.2.4-2.6.6-3.2,1.8-.9,1.4,0,2.9.4,4.3.4-1.2.5-2.7,1.5-3.7.9-1,2.4-1,3.6-1.2.2,1.2.8,2.4.3,3.5-.4.9-1.2,1.4-1.9,2.1,1.6,3.5,5.9,5.5,9.5,3.9,2.3-1,4.6-3.9,3.2-6.5-1,1-1.9,2.5-3.6,2.4-2,0-3.7-1.9-3.2-3.9.3-1.9,2.6-3.2,4.4-2.4,1.4.5,1.8,2,2.5,3.1.4-.6.8-1.2,1.2-1.8-1.4-.9-3.2-2-2.8-4,.2-3,4.8-3.8,6.1-1.1,1.2,2.1-.5,4.2-2.4,5,.4.6.8,1.3,1.2,1.9.7-1.2,1.2-2.8,2.7-3.2,2-.7,4.3,1,4.2,3.1,0,1.9-1.7,3.4-3.6,3.2-1.5,0-2.4-1.6-3.4-2.5-1.3,2.7,1,5.7,3.5,6.6,3.5,1.4,7.7-.5,9.2-4-1.4-1.1-1.1-3,0-4.2.9-1.1,2.5-1.2,3.8-1.7-1.1-.4-2.2-.7-3.3-1,0-15.8,0-31.5,0-47.3,13.5,18.1,22.4,39.5,26.5,61.6,5.4,29.1,2.8,59.7-7.7,87.4-4.1,0-8.1,0-12.2,0,1.1,1.4,2.5,3.2,1.7,5.1-.7,1.5-2.7,1.3-4.1,1.4-12.8,0-25.6,0-38.4,0-1.5,0-3.9,0-4.4-1.8-.6-1.9.8-3.5,1.8-4.9-7.6.1-15.3,0-22.9,0,3.5-5.4,5-11.7,6.2-17.9,2.6-14.2,2.3-28.8,2.5-43.2,0-4-.2-8-.2-12,1.2-1.8.9-4.1-.3-5.8-2.2-2.8-4.8-5.8-4.8-9.5-.3-5-1.7-9.8-3.3-14.5,1.1-.3,3,0,3.3-1.4.4-1.7-.8-3.2-1.7-4.6-2.2-2.9-3.8-6.2-4.5-9.7-.8-7.9,1.7-16.4-2.3-23.7-1.9-3.7-6.2-4.5-9.4-6.6-1.3,3.5-5.3,4.7-8.6,4.8-3.1,0-6.7-.3-9.1-2.6-1-.8-.9-2.2-1.1-3.3-2.1.3-4.2.6-6.2,1.1-2.1.5-3.8,2.2-4.6,4.2-1.5,3.6-2.9,7.3-4.1,11-2.8-3.2-5.9-6.2-9.2-9-1.4-.2-2.7.4-4,.6,5.3,4.5,10.4,9.4,14.3,15.2-6-2.7-12.8-3.2-19.3-2.7-.8,1.1-1.6,2.2-2.4,3.3,5.8-.4,11.8-.8,17.5.8,1.9.4,3.3,1.7,4.8,2.9,1,1,3.1.4,3.1-1.1.9-3.6,3.4-6.6,6-9.2,4-3.8,8.7-6.6,13.7-8.7,1.9,5.8,3.7,11.5,5.6,17.3,1.3.2,2.7.4,4,.7-.9-1.3-1.7-2.6-2.3-4.1,2-.3,4.6-.3,5.7-2.3,1.6-2.8,0-5.9-1-8.6.2,0,.7-.2,1-.2,1,2.8,2.5,5.7,1.7,8.7-.5,1.9-2.4,2.8-3.3,4.5-.5,1.5.6,2.7,1.7,3.5,0,1.2,0,2.4,0,3.6-4.6-1.4-9.5-1.7-14.3-2,.5-.4,1.4-1.2,1.8-1.6-1.3,0-2.5.1-3.8.2,1.9-1.3,3.8-2.6,5.1-4.5-.5-.6-.9-1.2-1.4-1.8-2,.8-3.9,1.7-6,2.1,1.2-2,2.8-3.7,3.7-5.8-3.6.9-5.5,4.6-9,5.8,0-1.7.2-3.6-1.3-4.8-.8,2.8-2,5.4-2.8,8.2-2.7,2.2-6.4,3.3-9.8,2.7-2.1-1.3-4.6-3-7.1-1.8-2.6,1.6-3.7,4.7-4.2,7.5-.5,3.5-.4,7.1.4,10.5.6,1.9,1.7,4.1,3.9,4.5,1.7.1,3.1-1,4.1-2.2,2.7-2.9,4.4-6.6,5.7-10.4,5.5-1.4,9.2-6.7,15.2-6.6-2.5,2.5-6,3.8-8.2,6.6-1.9,4.7-5.1,9-6.3,14-.9,2.1,2,3.6,1.2,5.6-1.9,8.3-3,16.7-4.1,25,0,1.2-.2,2.7,1,3.5,4.1,1.7,8.7.2,12.9,1.9-.3,2.1-.1,4.4-1.5,6.2-.4-1.4-.7-2.8-.9-4.3-2.9-.5-5.9-.6-8.8-.6-.2.2-.6.6-.7.8-.7,2.9-.4,5.8-.7,8.7-.8,5.8-.5,11.7-.9,17.6-.5,8.8-.9,17.6-1.2,26.4-5.1,0-10.2,0-15.2-1.3-1.3-.4-3.2-1-3.1-2.7,1.6-2.9,4.7-4.5,7.5-6,3.4-3.3,5-8,6.2-12.4.7-3.2,2-6.3,1.9-9.6-1.5.6-2.5,1.8-3.2,3.2-1.6,3.1-3.1,6.8-6.5,8.3-2,.7-3.3-1.6-3.3-3.3-.1-3.3,1.7-7.1,5.1-7.9.7.6,1.3,1.2,2,1.8,4.7-6.9,7.9-15,8.3-23.4,0-2.1.1-4.8-2-6-1.5.5-1.8,2.3-3.1,3.2-.8-.8-.9-2-.7-3,1-5.7,2.9-11.2,4.9-16.7,1-3,2.5-5.8,3.1-8.9-.5-.9-1.4-1.5-1.7-2.5,1.1-6.2,4.8-11.5,6.8-17.3-2.2,1.4-3.1,4-4.3,6.1-6.3,12.5-10,26.2-12.6,39.9-.5,3-1.5,6.6.4,9.3,1,1.3,2.6.1,3.8-.2-1.9,6.8-7.5,11.7-10.1,18.2-1.9,4.6-3.6,10.2-.9,14.8.8,1.6,1.9,3.3,1.2,5.2-1.5,3.9-6.4,5.2-7.8,9.2-.8,1.8.1,3.8,1.5,5,1.9,1.7,4.3,2.9,6.4,4.3-3.5,0-6.9,0-10.4,0,1.1,1.4,2.5,3.2,1.7,5.2-.7,1.6-2.8,1.3-4.3,1.4-12.8,0-25.6,0-38.4,0-1.4,0-3.4.1-4.2-1.4-.9-1.9.5-3.7,1.7-5.1-3.6,0-7.3,0-10.9,0-9-23.7-12.2-49.5-9.6-74.7,2.8-26.9,12.5-53.2,28.7-74.8,0,16,0,32,0,48.1-1.4-.1-2.8.1-4.2.6,1.5.5,3.4.8,4.2,2.4,1,1.4,0,2.9,0,4.4,1.9,3.5,7.1,4.7,10.3,2.2,1.7-1.3,3.1-3.7,1.9-5.7-1,.9-1.7,2.4-3.2,2.5-1.9.3-3.7-1.4-3.6-3.3,0-2.1,2.2-3.8,4.2-3.1,1.5.4,2,2,2.7,3.2.4-.6.8-1.3,1.2-1.9-1-.7-2.4-1.2-2.7-2.6-.6-2,1.2-4.2,3.3-4.1,2,0,3.6,2.1,3,4-.2,1.4-1.7,2-2.7,2.8.4.6.8,1.2,1.1,1.9.7-1.1,1.2-2.7,2.6-3.1,2-.8,4.5.8,4.4,3,0,2-2,3.7-3.9,3.2-1.3-.2-2-1.5-3-2.4-1.4,2.6,1,5.5,3.4,6.5,3.6,1.5,7.8-.5,9.4-4-1.9-1.3-2.6-3.5-1.6-5.6,1.2.3,2.7.3,3.6,1.3,1,1,1.1,2.4,1.6,3.6.4-1.4,1.2-2.9.3-4.3-.6-1.4-2.3-1.5-3.6-1.8,0-17.9,0-35.7,0-53.6-.3-10.7,4.9-21.3,13.5-27.7ZM133.9,34.5c.4.9,2.6,2.6.6,2.9-2.3-1.3-4.3-3.1-7-3.4-2.5-.4-5.7.6-6.8,3.1-.6,1.4.8,2.3,1.6,3.3-.9,1.5-1.9,3.2-1.5,5,.6,3.6,6,5.4,8.3,2.4,1.8-2.1.8-5,1.6-7.3.7-1.5,4.3-1.6,4.2.3-1.2,1.6-2.8,2.8-3.6,4.7-1.1,2.1-1,4.6-1.5,6.9-.8,2.4-3.7,3.1-4.8,5.3-.9,2.2,1.5,3.8,2.2,5.7-.7,2.2-2.8,3.5-4.2,5.2,4.3.7,8.7.1,12.9-.4-.3-.3-.9-.9-1.2-1.2-2.7.1-5.4.3-8.1.2,2-1.7,3.9-4.2,2.8-7-.3-1.3-1.9-3.1-.3-4.2,2.7-1.5,6-1.1,8.8-.1-1.8.2-3.8,0-5.5.9,0,.4,0,1.1,0,1.5,1.8-.4,3.7-.8,5.6-.9-.6.3-1.2.7-1.7,1-.1.4-.3,1.2-.4,1.6-.8-.2-1.3-.6-1.7-1.4-.3,0-.9.2-1.2.3,1,3.1,1.5,6.7,4,9.1,1.5,1.4,3.6.9,5.5,1.1-1.2.8-2.6,1.2-4,1.4,0,.2.2.7.3,1-.9.2-1.7.3-2.6.5.6,4.3,5.7,5.7,9.4,5.2,2.8-.3,6.4-1.8,6.5-5-.9-2.1-2.3-4-2.6-6.3,4.1-.4,8.4-.5,12.3-2-2.1-1.5-5.2-1.4-6.8-3.6-.9-2,0-4.5-1-6.5-.8-1.5-2.5-2.1-3.9-2.8,0-3.3-1.9-5.9-3.8-8.4,3.4.2,4,4.6,7.2,5.1,2.3.5,5.1.7,6.9-1.1,2.1-1.9,2.3-4.9,1.6-7.4-.9-3-5.3-3.6-7.6-1.9-.7,1.5-.7,3.8-2.6,4.5-2,1-3.9-.6-5.5-1.6,1.7-1.2,4.1-2.7,3.7-5.2,0-2.6-3.3-4.2-5.5-3.1-1.6.6-1.9,2.5-2.6,3.8-2.3-.8-.9-4.3-3.2-4.9-2.2-1-5.5,1-4.4,3.5h0ZM36.3,121.8c1.1.4,2.3.6,3.3,1.3,1.2.9,1.4,2.6,1.9,3.9.5-1.6,1.2-3.6-.2-4.9-1.3-1.5-3.4-.9-5-.3h0ZM101.4,121.8c1.1.4,2.3.6,3.3,1.4,1.1.9,1.2,2.4,1.7,3.7.7-1.5,1.3-3.3,0-4.7-1.2-1.6-3.4-1.1-5-.4h0ZM178,121.7c-1.7,1.2-1.1,3.5-.6,5.1.6-1.4.8-3.2,2.3-4.1.9-.5,2-.7,3-1-1.5-.5-3.3-1.3-4.7,0ZM242.9,122c-1.4,1.3-.8,3.3-.2,4.9.4-1.1.6-2.3,1.2-3.2.9-1.3,2.6-1.4,4-1.9-1.6-.6-3.7-1.3-5,.2ZM43.5,124.3c1.4.6,3.3.7,4.1,2.2.5.9.7,2,1,3,.6-1.6,1.3-3.7-.2-5-1.3-1.4-3.3-.7-4.9-.2ZM94.3,124.4c1.3.5,2.8.6,3.8,1.7.8.9.9,2.3,1.3,3.4.7-1.5,1.4-3.3,0-4.7-1.3-1.7-3.5-1-5.1-.4ZM184.8,124.7c-1.4,1.4-.8,3.3,0,4.8.3-1.2.4-2.5,1.3-3.5.9-1,2.4-1.2,3.7-1.7-1.6-.6-3.7-1.3-5,.3h0ZM235.5,124.7c-1.3,1.4-.5,3.2,0,4.7.4-1.4.6-3,1.8-3.9,1-.6,2.1-.8,3.2-1.2-1.7-.7-3.9-1.3-5.2.5h0ZM86.6,128.4c.6,1.8,1.3,3.8,3.1,4.6,1.9,1,4,.4,5.9,0-1.8,0-3.8.3-5.4-.8-1.6-1-2.1-3-2.8-4.6-.2.2-.6.6-.9.8ZM196.6,127.5c-.6,1.6-1.1,3.4-2.5,4.4-1.6,1.2-3.7.8-5.5.9,1.9.5,4,1,5.9,0,1.8-.8,2.5-2.9,3.1-4.7-.2-.2-.7-.6-.9-.7ZM99.2,139.4c-18.6,0-37.1,0-55.7,0,0,12.2,0,24.4,0,36.6,0,3,.1,6.1.9,9,2.2,9,9.1,16.6,17.8,19.7,6.2,2.3,13,2,19.3.2-7.4,3.8-16.3,4.4-24,1.3,0,4.7,0,9.3,0,14,9.6,0,19.1,0,28.7,0,0-5.9,0-11.8,0-17.7,6.2-3.7,11-9.9,12.9-16.9,1.3-4.6,1-9.4,1-14.1,0-11.7,0-23.4,0-35.1-.2-2.7.6-5.3,1.6-7.8-2.8,2.9-2.6,7.1-2.5,10.8h0ZM183.2,128.5c.8,2.1,1.6,4.2,1.5,6.5,0,12.4,0,24.9,0,37.3h13.7c0-2.5,0-5.1,0-7.6-1.4.3-2.8.6-4.3.9,0,.6,0,1.7,0,2.2-.4-.6-.9-1.2-1.3-1.8-.1.5-.4,1.5-.5,2-.1-.5-.3-1.5-.4-2-.4.2-1.1.7-1.4.9.2-1,.4-2.1.6-3.1.7.3,1.4.6,2.2.9,1-.6,2-1.2,3.1-1.8-.5-.3-1-.7-1.5-1,1.5-.7,2.5-2.1,3.6-3.3,0-.5,0-1.5,0-2-.7-.3-1.4-.7-2.2-1-1.6,1.7-3.8,2.9-4.9,5-.4-.2-.8-.4-1.3-.5-.4.5-.9.9-1.3,1.4,0-.5.2-1.5.2-2-.4.2-1.2.7-1.6.9.2-.9.3-1.9.3-2.9.9.2,1.8.5,2.7.9,1.1-1.3,2.3-2.5,3.5-3.7-.8-.1-1.6-.3-2.4-.4.9-.3,1.9-.7,2.8-1.1-2.5-1.8-4.4-4.5-7.5-5.4.5-.1,1.4-.3,1.9-.4-.4-.4-1.2-1.1-1.7-1.4l1.7.3c-.2-.3-.6-1-.8-1.3.7.1,1.5.1,2.2,0,.2.8.3,1.5.5,2.3,2.4,1.2,4.7,4.8,7.6,3.3,1.9-.9-.2-2.4-1.3-2.6.9-.2,1.7-.5,2.6-.7-.9-.6-1.9-1.2-2.8-1.8.9-.5,1.8-1,2.6-1.5,1.5.3,3,.4,4.4.1-.5,2-1.2,4.1,0,6.1-.6,0-1.7,0-2.3,0,1,1.3,2.5,1.9,4,2.4-1.4.4-2.7.6-4.1.7,2.3,1.5,4.7,3.1,7.6,2.5-.2-3.5-3.9-5.5-3.9-8.9.5-2.2,3.2-1.8,4.8-2.1,2.6,1.3.7,4.5,1,6.7-2-1.2-3.3-3.2-3-5.7-.8.3-1.9.4-1.8,1.6.7,3.1,3.9,5,3.9,8.4.9,0,1.9,0,2.8,0v-16.2c-9,0-18,0-27.1,0,0-3.7.3-8-2.6-10.8h0ZM42.9,129.9c1.1,1.4,2.3,3,4.1,3.4,1.7.6,3.5,0,5.2-.4-2.1,0-4.7.3-6.3-1.4-.9-.7-1.6-2.1-3-1.6ZM240.1,129.5c-1,1.1-2,2.4-3.5,3-1.5.5-3.1.3-4.7.4,1.7.4,3.5.9,5.2.3,1.7-.4,2.8-1.8,3.9-3.1-.2-.2-.7-.5-.9-.7h0ZM213.9,139.3c0,5.4,0,10.8,0,16.2,2.7,0,5.4,0,8.2,0-.5-.4-1.4-1-1.8-1.4.9-.3,1.8-.5,2.7-.8-2.3-1.8-4.1-4.5-7.1-5.3.3-.2.9-.6,1.2-.7-.2-.3-.5-.9-.7-1.2.8-.5,1.6-.9,2.4-1.4.3,1.1.2,2.6,1.5,3.3,1.6,1.1,3.4,3.2,5.5,1.9-.6-.5-1.3-.9-1.9-1.4,1.5-.5,2-2,2.2-3.4,1.5.3,3.1.6,4.6.9-.1,1.5-.3,3,0,4.5-.4,0-1.3,0-1.7,0,.2,3.1,3.6,3.9,5.6,5.5.9.8,3,.3,2.8-1.1-.4-2.9-3.4-4.7-3.8-7.7-.2-1.2.9-2.2,2.1-2.2,1.4-.2,3.4-.9,4,.9.4,1.8-.3,3.7-.2,5.5-2.1-1.2-3.4-3.3-3.1-5.7-1,.3-2.4.9-1.7,2.2.9,2.7,3.9,4.6,3.6,7.7-.3,1.4-1.9,1.5-3,2,.3.6.7,1.3,1,1.9-.2.4-.7,1.1-.9,1.4.7.8,1.6,1.3,2.7,1.5-.4,3-2.8,4.7-5.1,6.2.2.3.6.9.8,1.2-.2.3-.4.7-.6,1-.2-.3-.7-1-1-1.4l-.9,1.1c-.1-.3-.3-.9-.4-1.2-.3.4-.9,1.1-1.2,1.5.1-.5.3-1.4.4-1.9-.5.2-1.5.7-1.9,1,.7-2.2,3-2,4.7-2.7.9-.7.6-2.1.9-3.1-.9.4-1.7.7-2.6,1.1.7-2.1.4-4.3.4-6.4-1,1.4-2.2,2.7-3.6,3.8.4.2,1,.5,1.4.7-.5.4-1,.9-1.5,1.3,0,2.7,0,5.3,0,8h13.6v-33.1c-9.2,0-18.4,0-27.6,0h0ZM229,147.7c.2-.2.6-.7.7-.9-1.2.2-2.3-.2-3.4-.6.7.8,1.7,1.1,2.6,1.5h0ZM226,149.2c.9.1,1.9.2,2.8.4-.5-.4-1-.8-1.5-1.2-.4.3-.9.5-1.3.8ZM204.7,156.7c1.9,2.3,3.7,4.6,5.5,6.9.5.9,1.6.9,2.5,1.2,0-2.7,0-5.4,0-8.1-2.7,0-5.4,0-8.1,0ZM213.9,156.7c0,.7,0,2.2-.1,3,2.5.8,5.3.3,7.9.4-.9.5-1.8.9-2.6,1.4-.2,1-.2,2.1-.3,3.1.4,0,1.2,0,1.6,0,0,1.2,0,2.3,0,3.5,1.1-.1,2.4.2,3.2-.7,1-1.4.6-3.2.9-4.8,1.3.9.6,2.7.4,4.1-.5,1.9-2.8,2.1-4.4,2.4,0,1.1,0,2.3,0,3.4,2.2,0,4.3,0,6.5,0v-15.7c-4.3,0-8.6,0-12.9,0h0ZM227.9,157c-.3,1,0,1.4,1.1,1,.3-1,0-1.4-1.1-1ZM213.8,160.2c0,1.5,0,2.9.1,4.4,1.1,0,2.2,0,3.3,0,0-1.1,0-2.2-.2-3.3-1-.5-2.1-.7-3.2-1.1ZM199.6,161.7c0,3.6,0,7.1,0,10.7h6.5c0-.9,0-1.8,0-2.7-2.2-2.7-4.3-5.3-6.5-8ZM207.1,165.6c0,1.3,0,2.6,0,3.9h3.9c.1,1.5-.3,3.1.4,4.4,1.2.1,2.4-.1,3.6.3,1,1.7.3,3.9.5,5.8,2.3-1.2,3.7-3.5,4-6-1.2,0-2.5.1-3.7,0-.8-1.3-.3-3-.4-4.5-1.5,0-2.9,0-4.4,0,0-1.3,0-2.6,0-3.9-1.3,0-2.6,0-3.9,0h0ZM215.4,165.6c0,1.3,0,2.6,0,3.9h3.9c0-1.3,0-2.6,0-3.9-1.3,0-2.6,0-3.9,0ZM184.8,173.5c0,3.2,0,6.4.4,9.5,5.1,0,10.2,0,15.3,0-1.6-2.9-2.1-6.3-2-9.6-4.6,0-9.1,0-13.7,0ZM199.5,173.4c0,3.1.3,6.4,2,9.1,2.3,4,6.7,6.4,11.3,6.7,0-2.6.2-5.2,0-7.7-.3-.1-.8-.4-1.1-.6-.5,1.1-.4,2.7-1.6,3.4-1.8,1.1-4.4,1.1-6-.4-1-1.9-.3-4.2-.8-6.3-.8-.5-1.7-.8-2.5-1.2,1.8,0,3.7,0,5.6,0-.1-.9-.2-1.9-.3-2.8-2.2,0-4.3,0-6.5,0h0ZM220.4,173.5c0,.8-.1,1.6-.2,2.4,1.7,2.1,3.3,4.1,5,6.2,1.4-2.6,1.7-5.6,1.7-8.6-2.2,0-4.3,0-6.5,0ZM228,173.5c0,2-.2,4-.5,6,2.3-.2,4.6-.2,6.9,0,1.7,0,3.4-1,3.9-2.6-2.3.3-4.4,1-6.7,1.2,0-.8.2-1.6.4-2.4.6-.1,1.7-.3,2.2-.4-.8.8-1.6,1.6-2.4,2.4,2.5.2,5-2.2,7.3-.5-.9,1.4-2.3,2.4-3.8,3,.6,1.1,1.2,2.3,2.7,2.2-.2,1-.6,1.9-.9,2.9-.5,0-1-.1-1.6-.2.6-.5,1.1-1,1.6-1.6-1.2-.4-2.4-1-3.4-1.8-1.3,1.5-2.8,3.1-4.8,3.7,1.3-1.5,2.8-2.9,3.9-4.5-2.2.6-4.4,1.5-6.7,1.9-2.6,4.3-7.2,7.2-12.2,7.5,0,5.4,0,10.8,0,16.2,10.3-.4,20.2-6.6,24.7-16,2.7-5.2,3.1-11.3,2.9-17-4.5,0-9,0-13.5,0h0ZM207,173.9c.2,2.6,1.7,4.9,4,6.1-.2-1.9.6-4.1-.5-5.8-1.1-.4-2.3-.2-3.5-.3ZM205.5,183c1.4,2.7,5.7,1,5.2-1.9-1.7-1.2-3.3-2.7-4.5-4.4-1.5,1.8-1.1,4.3-.7,6.3ZM214,180.8c-.2,2.8-.1,5.6,0,8.4,2.2-.3,4.3-1,6.3-1.9-2.1-2.2-3.3-5.4-6.2-6.5h0ZM190,194.6c2,2.7,4.5,5.1,7.3,7.1,0,6.2,0,12.3,0,18.5,10.1,0,20.1,0,30.2,0,0-4.7,0-9.4,0-14-7.8,3.1-16.7,2.5-24.1-1.3,3.1.8,6.2,1.5,9.4,1.6,0-4,0-7.9,0-11.9-7.6,0-15.2,0-22.8,0h0ZM48.2,226.9c15.3.2,30.5.1,45.8,0-.7-3.4-4.2-5.8-7.5-5.6-10.2,0-20.5,0-30.7,0-3.3,0-6.9,2.2-7.5,5.6ZM189.9,227c15.3,0,30.5.1,45.8,0-.8-3.5-4.4-5.9-7.9-5.7-10.5,0-20.9,0-31.4,0-3,.3-6.2,2.5-6.6,5.7h0Z"/></g><path id="p" class="dg" d="M56.5,43c1.7-2.5,4.1-4.8,6.9-6.1-.4.8-.9,1.6-1.4,2.4,1.6,2.4,3.7,4.4,5.5,6.5.9.9,1.7,2,2.8,2.5.5-.2,1.4-.6,1.9-.7.1.1.4.4.5.6-2.3,1.8-4,4.4-6.9,5.4.4-.8.9-1.6,1.4-2.3-2.2-3-4.8-5.8-7.5-8.5-.9-1.1-2.2.2-3.3.3Z"/><g id="q"><path id="r" class="df" d="M219.8,38.8c5.2-1.3,10.8,3.3,10.8,8.6,0,3.6-3,6.8-6.5,7.6-5.4,1.1-10.9-4.1-10.3-9.5.3-3.2,3-5.9,6-6.7h0ZM222.8,41c-3.2,1.2-5.8,4.2-6.3,7.7-.4,2.7,2.5,5.2,5.1,4,3.1-1.4,5.7-4.5,6.1-7.9.4-2.6-2.4-4.8-4.9-3.8h0Z"/></g><path id="s" class="dg" d="M48.3,50.8c1.6-1.6,2.6-3.9,4.7-4.7-.4.9-.8,1.8-1.2,2.6,2.7,2.5,5.6,4.7,8.5,6.9,1.2,1.3,2.6-.3,3.9-.7-1.7,2.7-3.8,5.1-6.1,7.3.2-1,.5-2,.9-2.9-2.6-2.6-5.6-4.8-8.5-7.1,1.9,4.3,4.2,8.4,6,12.8-4.4-.6-8.6-2.3-12.9-3.4,2.5,2.2,4.7,4.7,7.6,6.4,1-.3,2-.7,3.1-1-1.4,2-2.9,4-4.8,5.5,0-1.1.9-2.6-.2-3.5-2.5-2.6-5-5.3-7.9-7.5-1,.3-1.8.9-2.8,1.3.9-1.9,2.4-3.4,3.7-5,3.6.9,7.2,1.9,10.8,2.8-1.6-3.3-3.2-6.6-4.8-9.9Z"/><path id="t" class="dg" d="M137.8,55.7c2.6-2.9,6.7-4.7,10.7-3.7,1.6.4,1.9,2.2,2,3.6-1.2-.9-2.2-2.3-3.9-2.2-3.1-.2-6,1.1-8.8,2.3Z"/><path id="u" class="dg" d="M139.2,57.6c1.6-1.1,3.7-1.7,5.6-1.2-.6.2-1.8.5-2.4.7-.2.6-.5,1.3-.7,1.9-.9-.5-1.7-.9-2.6-1.4h0Z"/><path id="v" class="dg" d="M233.3,56.1c2.1-1.2,5.1.3,5.3,2.8.5,2.9-3,5.3-5.5,3.8-2.7-1.2-2.5-5.5.2-6.6h0Z"/><path id="w" class="dg" d="M137,63.3c1-.5,2.1-.8,3.2-1.1.1.2.4.6.5.8-1.2.2-2.5.3-3.7.3Z"/><g id="x"><path id="y" class="df" d="M245.3,61.7c2.1,2.3,3.6,5.1,5.3,7.7,1,1.6,1.9,4.1.2,5.5-1.4,1.5-3.6.5-5-.4.2,1.2.8,2.4.4,3.7-.6,2-3,3.2-4.9,2.3-1.8-.7-3.1-2.4-4.2-4-1.5-2.2-3-4.4-4.3-6.7.9.4,1.7.9,2.6,1.2,1.2-.2,2.2-1.1,3.2-1.7,2.2-1.6,4.7-2.8,6.7-4.7,0-1,0-1.9-.2-2.9ZM243.4,70.4c1,1.3,2.5,3.3,4.4,2.2,2.3-1,1.4-3.7,0-5.1-1.5,1-3,2-4.5,3ZM238.1,74.3c-.5,1,.4,2.1,1.1,2.7,1.7,1.3,4.4,0,4.8-2,.2-1.5-.8-2.8-1.4-4.1-1.6,1.1-3.3,1.9-4.5,3.4Z"/></g><path id="z" class="dg" d="M137.3,65.5c1.5-.4,3-.6,4.6-.8-1.1,1.5-3.2,2.5-4.6.8Z"/><path id="aa" class="dg" d="M34.7,68.5c1.3.7,2.6,1.4,3.9,2.1-1.1.2-2.2.2-3.3.3-1.4.8-2,2.4-2.8,3.8,1.5,1,3.1,1.9,4.6,2.8.6-1.1,1.3-2.1,1.7-3.2-.3-.8-.7-1.7-1.1-2.5,1.9.7,3.9,1.5,5.1,3.3-.6,0-1.8-.2-2.4-.3-.7,1.1-1.5,2.2-2.2,3.3,1.7.9,3.3,2.4,5.2,2.4,1.1-1,1.9-2.4,2.4-3.8,0-1.4-1.1-2.7-1.2-4.1,1.2.9,2.4,2,3.5,3.1-1.8,3-3.7,6-5.5,9.1-.5.9-1.2,1.8-2,2.5.1-.9.3-1.9.4-2.8-1.1-1.3-2.7-2-4.1-2.9-2-1.1-3.9-2.6-6.1-3.3-.9.4-1.7.9-2.6,1.3,1.9-3.8,4.4-7.4,6.5-11.1Z"/><g id="ab"><path id="ac" class="df" d="M242.4,84.2c1.3.6,2.5,1.6,4,1.5,4.5-.1,9-.5,13.5-.7.2.3.5.8.7,1-3,3.5-6.2,6.9-9.1,10.4-1,1-.6,2.6-.7,3.8-2-2.2-3-5-4-7.7.7.5,1.3,1,2,1.4.9-.8,1.7-1.7,2.5-2.6-.7-1.4-1.4-2.8-2.1-4.2-1.2.2-2.3.3-3.5.5,0,.9,0,1.8,0,2.7-1.5-1.8-2.5-4.1-3.4-6.3h0ZM250.5,87c.6,1.1,1.1,2.3,1.7,3.4,1.2-1.3,2.4-2.6,3.6-3.9-1.8.2-3.5.3-5.3.5h0Z"/></g><g id="ad"><path id="ae" class="df" d="M22.9,90.2c1.3-2.6,4-5.1,7.1-4.7,4.4.4,7.8,4.9,6.8,9.3-.9,3.8-2.5,7.6-4.7,10.8,0-.7,0-2,0-2.7-.9-1.2-2.4-1.5-3.6-2.1-2.4-1-4.7-2.4-7.2-2.9-.8.5-1.6,1.1-2.4,1.6,1.1-3.2,2.5-6.3,4.1-9.3ZM22.5,94.1c3.4,1.6,6.8,3.3,10.3,4.6,1.7.8,2.3-1.5,2.6-2.6.7-4.2-4.1-7-7.8-7-2.8,0-4.3,2.7-5.1,5Z"/></g><path id="af" class="dg" d="M62.5,88.2c1.9-.8,3.9-1.1,5.8-1.5,0,4.1-.2,8.3.1,12.4.6.5,1.3,1,2,1.5-2.6,0-5.2.1-7.9,0,.7-.4,1.5-.9,2.3-1.3,0-3.4.3-6.9-.2-10.3-.5-.2-1.6-.5-2.1-.7h0Z"/><path id="ag" class="dg" d="M73.8,86.9c2.3,0,4.6,0,7,0-.1.8-.3,1.7-.4,2.5h-5.6c-.2.9-.3,1.8-.5,2.8,2.1-.5,4.9-.8,6.3,1.3,1.6,2.1.2,5.1-1.9,6.3-2.1,1.5-4.6,1.1-6.8.2.4-.8.8-1.5,1.3-2.3,1.2.7,2.3,1.7,3.7,1.9,2-1.2,1.5-4.9-.6-5.6-1.1-.2-2.2,0-3.3,0,.3-2.3.6-4.7.9-7Z"/><path id="ah" class="dg" d="M202.2,91.2c.2-1.4.3-2.8.5-4.3,3.3,0,6.5,0,9.8,0-2.1,4.5-4.2,9.1-6.2,13.7-1.1,0-2.3,0-3.4.1,2.3-3.7,4.7-7.4,6.8-11.3-2.6,0-5.6-.6-7.5,1.6h0Z"/><path id="ai" class="dg" d="M214.8,86.9c2.3,0,4.6,0,6.9,0-.1.8-.3,1.7-.4,2.5h-5.6c-.2.9-.3,1.8-.5,2.8,1.6-.3,3.3-.7,4.9,0,2,.8,2.8,3.5,1.7,5.4-1.7,2.9-5.9,4.3-8.7,2.2-.2-.9.6-1.5,1-2.2,1.3.6,3.1,2.8,4.5,1.3.8-1.6.6-3.8-1-4.8-1.2-.5-2.5-.2-3.7-.2.4-2.3.6-4.7.9-7h0Z"/><path id="aj" class="dg" d="M260.1,96.6c1.6-.6,3.2-1.1,4.8-1.6.1,2.3,1.1,4.5,1.9,6.7.9,2.4,1.5,4.9,3.1,6.9-1.6.7-3.1,1.4-4.8,1.9.6-1.4,2.6-2.4,2-4.1-.2-.8-.4-1.6-.6-2.4-3.8,1.6-7.9,2.6-11.6,4.5-.1,1-.2,2.1-.3,3.1-1.7-2.7-2.6-5.9-3.5-8.9,1.1.6,2,2.4,3.5,1.8,3.6-1.2,7.1-2.6,10.6-3.9-.6-1-.9-2.3-1.8-3.1-1.1-.3-2.3-.5-3.4-.9h0Z"/><path id="ak" class="dg" d="M109.7,108.1c.4-2.6,1.1-5.8,3.9-6.7-.6,2.6-2.1,5.6-.4,8.2,1.4,2.2,4.4,1.5,6.6,1.4-1.2,2.9-2.6,6.1-5.4,7.9-1.4,1-3.4.1-3.9-1.4-1.3-2.9-1.1-6.2-.7-9.3h0Z"/><g id="al"><path id="am" class="df" d="M28.1,109.7c1.6,0,2.5-1.5,3.6-2.5-.6,2.8-1.1,5.9-2.8,8.3,0-.6-.2-1.7-.3-2.3-1.2,0-2.4.1-3.6.2-.5,1.5-.9,3-1.4,4.5,1,.6,1.9,1.3,2.9,1.9.6-.6,1.3-1.2,1.9-1.8-.4,2.3-1.1,4.6-2,6.8-.5-1.4-.7-3-1.9-4-3.3-2.9-6.7-5.7-10.1-8.5,0-.3,0-1,0-1.3,4.6-.5,9.1-.8,13.7-1.3ZM18.3,114c1.4,1.1,2.8,2.2,4.2,3.3.4-1.2.7-2.4,1.1-3.6-1.8.1-3.5.3-5.3.4Z"/></g><path id="an" class="dg" d="M160,115.4c3.1-2.9,9.6-2.9,10.8,1.8.1,1.9-1.7,1.5-3,1.3-.6-1.2-.7-2.8-2.1-3.3-1.8-.8-3.8,0-5.7.1h0Z"/><g id="ao"><path id="ap" class="df" d="M257.3,121c-.8-2.2-1.7-4.5-1.6-6.9.9.8,1.5,2.1,2.8,2.3,4.4,1,9,1.2,13.4,2.2.3.2.9.7,1.2.9-3.6,2.8-7.4,5.5-11,8.2-1.3.9-1.5,2.6-2.1,3.9-.8-2.7-1.7-5.4-1.9-8.2.4.4,1.3,1.1,1.7,1.5,1-.5,1.9-1.2,2.9-1.9-.4-1.5-.8-3.1-1.2-4.6-1.1,0-2.3,0-3.4-.1-.2.9-.5,1.7-.8,2.6h0ZM262.9,118.6c.3,1.2.6,2.5.9,3.7,1.4-1,2.9-2.1,4.3-3.1-1.8-.2-3.5-.4-5.3-.6h0Z"/></g><path id="aq" class="dg" d="M160.7,119.3c.9,2.1,1.2,4.4,2.2,6.5.8,1.9,2.3,3.5,3.2,5.5.6,2.4-2.3,3.2-3.1,5.1-1,.5-2,1-2.9,1.6-2.3.3-4.6.6-6.8,1,.4-1,.6-2.1,1.1-3,1-.6,2.1-1,3.1-1.6,1.3-1,1.4-2.8,1.9-4.2,3.1-2.8,1.4-7.2,1.5-10.8h0Z"/><path id="ar" class="dg" d="M11,136.9c-2.3-3.7-1.3-8.4.4-12.1,1.5.1,3,.2,4.5.4-.1.2-.3.6-.4.9-1.4.4-3,.7-3.7,2.1-1.5,2.5-.6,6.1,2.1,7.3,3.5,1.9,9.4,1.5,10.5-3,.9-2.9-2.1-4.5-3.1-6.8,1.6.5,3.2,1.3,4.7,2.1,0,3.7-.2,8-3.1,10.7-3.3,3.3-9.4,2.3-11.7-1.6Z"/><path id="as" class="dg" d="M125,125.8c3.5-1,7.3-.5,10.2,1.6,0,1.6-.2,3.4.9,4.8,1.2,2.1,3.7,2.8,5.9,3.3.4,2.2,1.6,4.2,3.5,5.5-1.3.2-2.6.7-3.9.1-1.7-.5-2.6-2.4-4.5-2.7-1.3-.3-2.6-.8-3.5-1.9-2.1-2.3-2-5.5-2-8.4-1.9-1-3.9-1.5-6-1.7-.1-.2-.4-.5-.5-.7Z"/><path id="at" class="dg" d="M271.9,130.4c1.4-.7,1.7-2.4,2.4-3.6.6,2.9,1.2,5.8,1.2,8.7-.6-.7-1.1-1.4-1.6-2.1-2.9,1.7-5.7,3.5-8.6,5.3,3.2.6,6.4,1.4,9.7,1.9.3-.8.6-1.7,1-2.5.7,2.3,1,4.7,1.2,7.1-1.1-1-2-2.3-3.5-2.8-4.3-1.5-8.7-2.2-13-3.6,0-.3-.2-.8-.2-1.1,3.7-2.6,7.6-4.8,11.4-7.3h0Z"/><path id="au" class="dg" d="M191.9,143.6c-1.9-.2-1.7-3-.1-3.6.1,1.2.1,2.4.1,3.6Z"/><path id="av" class="dg" d="M206.2,140.7h1.3v2.8h-1.3c0-.9,0-1.8,0-2.8Z"/><g id="aw"><path id="ax" class="df" d="M143.2,144.7c6.6-1.8,13.4-3.8,20.4-3.4.6.8,1.3,1.5,1.9,2.3-.9.7-1.7,1.4-2.5,2.2-1.1-1.4-2.4-2.9-4.3-2.9-2.3-.4-3.8,1.6-5,3.3-1.7-.2-3.4-.7-5,.1-2.1.9-2.9,3.3-3,5.5-.2,3.8,1.2,7.4,2.9,10.7-1.5,4.4-2.6,9-1.8,13.7.7,4.8,3.5,9,5.6,13.3,2.8,6.3,4.4,13,6.7,19.6-.1-6.8-1.2-13.7-3.4-20.2-2.1-5-5.2-9.8-5.4-15.3-.5-6.1,3.4-11.3,4.3-17.2,0-1.5-1.3-2.3-2.3-3.2-1.3,1.4-1.6,3.2-2.1,5-.7-2.4-1.8-4.8-1.3-7.3.4-2,3-1.9,4.3-1,2.1,1.4,3.1,3.8,3.9,6,.8,2.8-1.1,5.5-1.1,8.2.7,1.5,2.4,2.1,3.7,3-1.1,2.9-2.2,6.1-1.4,9.2.7,3.2,5.3,4.6,7.7,2.4.2-1.4,0-2.8.3-4.2.6-2.3,2-4.4,2.4-6.7,0-1.6-.5-3.1-.7-4.6-.4-.1-1.1-.3-1.5-.5-.2.8-.6,1.7-1.3,2.3,0-.9-.2-1.8-.2-2.6-.3-.4-.9-1.1-1.2-1.4,1.5.5,3.1.9,4.6,1.4.4-2-.4-3.7-1.3-5.4-.3-3.2,2.4-6,5.3-6.9,1.4,1.7,1.4,3.8,1.2,5.8-.7-1-1-3.1-2.7-2.9-1.3,0-2.1,1.5-1.5,2.6,1.6,4.6,3.2,9.2,4.4,13.9,1.1,5.8-1.7,11.2-3.2,16.7-1.9,7.2-3.6,14.8-2.8,22.3,1.5-9.6,3.8-19.2,7.5-28.2-.3,11.1-1.7,22.2-4.4,33-1.2,4.7-3.8,9-7.2,12.5-9.9-6.1-17-16.4-19.5-27.7-1.4-6.7-1.7-13.7-1.9-20.5-.2-10.9-.7-21.9.9-32.7h0ZM153.3,165.2c-.9,1.3-1.4,2.9-1.2,4.5.3,3.6-.4,7.6,1.6,10.8,1.7,2.8,4.9,4,7.7,5.3-.8,1.8-1.8,3.6-1.7,5.6.1,2.3,1.2,4.4,2.1,6.6,0-2.8-.6-5.7.3-8.4,1.4-3.2,4.3-5.4,6.7-7.9,1.9-1.8,2.3-4.5,2.9-6.9.5-2.2,1.4-4.6.6-6.9-.3-.7-.9-2.3-1.8-1.2-1.5,3.7-.9,7.9-2.6,11.5-1,2.2-3,3.7-4.6,5.4-2.5-1.3-5.7-2.2-7.1-4.8-1.8-3.7-.6-8-1.7-11.8-.3-.6-.3-1.7-1.2-1.7h0ZM164.4,187.4c2,3.1,1.4,6.9,1,10.4,1.8-3.7,3.1-8.4.6-12.1-.5.6-1.1,1.1-1.6,1.7Z"/></g><path id="ay" class="dg" d="M226.1,142.4c.6.6,1.2,1.2,1.8,1.9l.8-1.5,1,1.5c-1.1.5-2.4.5-3.6.5,0-.6,0-1.7,0-2.3h0Z"/><g id="az"><path id="ba" class="df" d="M20,146c1.5-.4,2.1-2,3.1-3.1-.3,2.8.3,6-1.1,8.5-.2-.5-.5-1.6-.7-2.1-1.2.3-2.3.6-3.5,1-.1,1.6-.2,3.1-.4,4.7,1.1.4,2.2.9,3.3,1.2.3-.5.9-1.6,1.2-2.1.5,2.2,0,4.4-.1,6.6h-.7c-.4-1.2-.9-2.5-2.1-3-3.4-1.9-7-3.6-10.5-5.5-.9-.4-1.4-1.1-1.9-1.9,4.4-1.5,8.9-2.8,13.3-4.3ZM11.4,152.3c1.6.8,3.1,1.5,4.7,2.3,0-1.3.2-2.5.3-3.8-1.7.5-3.3,1-5,1.5Z"/></g><path id="bb" class="dg" d="M230.6,145.4c-1.6,0-.1-2.4.9-1.7.2.8-.1,1.3-.9,1.7Z"/><path id="bc" class="dg" d="M169.6,144.5c.9-.2,1.9-.5,2.8-.7,1.4,1.2,2.5,2.8,3.1,4.6-1.5-.6-3.1-1-4.8-.9-.4-1-.7-2-1.1-3Z"/><path id="bd" class="dg" d="M193.2,144.3c.4,0,1.2-.2,1.6-.2,0,.4,0,1.3,0,1.8.5.2,1.6.7,2.1.9-1.6-.2-3.5-.4-3.6-2.4h0Z"/><g id="be"><path id="bf" class="df" d="M61.4,144.7c1.6-.2,3.1.2,4.6.5,1.7-.3,3.4-.9,5.1-.9,1.5.8,2.8,1.7,4.3,2.5,0,.6,0,1.2-.1,1.9-1.1.2-2.3.4-3.3.7-.9.8-1,2.1-1.5,3.1,1.6-.3,3.1-.6,4.7-.9,0,.7,0,1.4,0,2.1-1.2.2-3.3,0-3.4,1.7.5,1.8,2.8,2.7,4.5,2,1.9-.7,3-2.6,4.2-4.1.3,1.4.5,2.8.6,4.2,2.4-2.2,5.2-4,7.4-6.4.1-2.2.7-4.4,2.4-5.9-.1.7-.4,2.1-.5,2.8,1.2-.6,2.4-1.2,3.6-1.7-.7,1-1.4,2-2.2,3,1.2-.1,2.5-.2,3.8-.3-1.1.7-2.3,1.5-3.4,2.3,1.2.5,2.4.7,3.7.9-1.2,1.1-2.7,1.5-4.2,1.6-2.5,3.1-5.4,5.7-8.5,8.1.9,2.9,4.5.8,6.1-.4-.1,1.2.2,2.6-.7,3.6-1.4,1.7-3.7,1.7-5.6,2,2.2,2.2,4.3,4.5,6.3,6.8,1.4-2.6,4.7-2.4,6.4-.3-1.1.1-2.2.2-3.3.3,1.3.8,2.5,1.8,2.8,3.4-.9-.5-1.8-1.1-2.7-1.6-.2,1.4-.4,2.8-.8,4.1-.9-1.1-1.4-3.3-3.2-2.7-.6.6-1,1.3-1.4,2-.4-1.3-.6-2.6-1.1-3.8-3.8-1.3-7.3-3.4-10.1-6.3-2.5,1.4-5.6,1.2-7.9,2.9,2.4.6,5,.6,7.1,1.9,1.6.9,2.7,2.5,4,3.8,1,1.2,2.7,1,4,1.4-1,2-3.1,2.8-5.2,2.9,1.9,1.4,3.8,2.9,5.7,4.4,1.4-.7,2.8-1.7,4.4-1.9,1.2,0,1.9,1.1,2.7,1.8-1,0-2,0-3.1.1.8,1.4,1.4,2.8,1.9,4.3-1-.5-1.9-1-2.9-1.5-.1,1.2-.3,2.4-.6,3.5-.6-1.1-1.1-2.3-2.3-2.8-.6.8-1.2,1.7-1.9,2.4-.2-1.4.6-3.9-1.5-4.2-4.3-1-9.3-1.6-12-5.4,1-.4,1.9-.9,2.9-1.2-2.8-2.1-5.3-4.7-7.3-7.6,1,2.7,1.2,5.6.9,8.4-.3,1.7,1,2.9,2.1,4-2.6.3-4.9-.8-6.7-2.6.4,2.3.4,5,2.1,6.9,1.6,1.8,4.4.8,6.2,2.2,1.1.8,1.2,2.3,1.7,3.5-1.1-.7-2.1-1.4-3.2-2,.2.8.6,2.4.8,3.2-.9-.7-1.8-1.3-2.6-2,0,.7.1,2.1.2,2.7-.8-1.2-1.6-2.5-2.4-3.6-.9,1-1.4,2.2-1.8,3.5-1.9-1.2-.9-3.2.4-4.4-4.9-2.8-10.6-6.9-10.1-13.2,1.2.2,2.8,1.1,3.7-.1,1.1-2.2-.8-4.2-2-5.8,1.1-.4,2.2-.8,3.3-1.2,0-.5.2-1.4.3-1.8-2.1-.3-4.6-.7-5.6-2.8-1.3-3.1.5-6.3,2.3-8.8,1.9-3,4.9-5.7,4.9-9.5-.1-1.7-2.1-1.9-3.4-2.1,0,1.8-.3,3.7-1.8,4.8-1.8,1.5-3.8,2.9-4.4,5.2-.3-3.9-1.4-8.7,1.7-11.8,1-1.2,2.6-.5,3.7,0,1.8.1,4,.1,5.2,1.8,1.6,2.4.4,5.4-.9,7.6-2,3.5-5.4,6.3-5.9,10.4-.4,2,1.8,3,3.5,3.2,1.9.4,3.1-1.6,4.6-2.5,2-1.8,4.9-2.3,6.7-4.4-2.7,0-5.7.3-7.9-1.7,2.1-1,4.2-2,5.6-3.9-1.6.3-3.3.5-4.9.3,1.1-1.5,2.7-2.7,3.3-4.5,0-1.9-.7-3.8-.4-5.7.5-1.1-.7-1.8-1.2-2.5h0ZM68.6,146c.8.6,1.6,1.4,2.3,2.1.5-.7,1-1.5,1.5-2.2-1.3,0-2.5.1-3.8.1h0Z"/></g><path id="bg" class="dg" d="M80.3,145.6c2-.6,2.7,2.2,1.5,3.4-1.6,1.8-4.3,1.4-6.5,1.5,1.6-.4,3.3-.8,4.7-1.6,0-1-1.4-2.8.2-3.3h0Z"/><g id="bh"><path id="bi" class="df" d="M262.1,144.5c.9,1.1,1.6,2.6,3.1,3,2.9,1.1,5.8,2,8.7,3.1,1.6.6,3.5.9,4.6,2.4-4.2,2.2-8.6,4.2-12.8,6.4-1.3.6-1.4,2.1-2,3.3-1-2.7-.7-5.7-.9-8.5.4.4,1.3,1.3,1.7,1.7,1.1-.3,2.1-.8,3.1-1.3,0-1.6-.2-3.2-.3-4.7-1.1-.3-2.3-.5-3.4-.7-.4.8-.7,1.6-1.2,2.3-.4-2.3-.5-4.7-.5-7h0ZM268.8,154c1.6-.7,3.2-1.5,4.7-2.2-1.6-.6-3.3-1.1-5-1.6,0,1.3.2,2.5.2,3.8h0Z"/></g><path id="bj" class="dg" d="M156.4,147.9c1-.6,2-1.2,3-1.8,1.9,2.4,2.8,6.1,1.4,9-1.2-2.5-2.6-5-4.4-7.2Z"/><path id="bk" class="dg" d="M164.7,148.6c.3-1.2,1.5-2.3,2.7-1.8.5,1.2.4,2.6-.5,3.6-1.2,1.4-1.4,3.5-3.1,4.3.1-2.1.3-4.1.9-6.1Z"/><path id="bl" class="dg" d="M187.3,151.3c.3,0,1,0,1.3,0,0,.9,0,1.8,0,2.8-.3,0-1,0-1.3,0,0-.9,0-1.8,0-2.7h0Z"/><path id="bm" class="dg" d="M176,158.7c0,2.1.1,4.1,0,6.2-.9-2-1.3-4.2,0-6.2Z"/><path id="bn" class="dg" d="M157.3,163.1c1.9-.8,3.9-1.5,5.8-2.3-.4.5-.8,1.1-1.2,1.6-.2.9-.4,1.8-.6,2.8-.4-.7-.8-1.4-1.2-2-.9.1-1.9.3-2.7,0h0Z"/><path id="bo" class="dg" d="M135.6,160.8c1.3.1,2.6.2,3.9.4,0,10.5-.2,21,1.1,31.4,1.1,9.2,4.7,18.3,10.9,25.3,1.9,2.2,4.3,3.9,6.4,5.9.3.9-.7,1-1.2,1.3-3.6,1.4-7.4,1.6-11.2,2.1-2.7,2.4-6,4.1-9.4,5.4-2.1.8-4.4.4-6.5-.3,3-.2,7.8-.6,8.2-4.3-1.4-1.3-3.4-1.1-5.2-1.3-2.3,0-4.3-1.4-6.4-2.3-17.4,4.6-34.8,9.2-52.2,13.9-.4,1.2-.8,2.3-1.2,3.5-7.7.7-15.4,1.6-23.1,2.2,6.9-2.9,13.9-5.8,20.8-8.7,1,.6,2.1,1.2,3.1,1.8,17.1-4.4,34.1-8.9,51.2-13.2-1.1-.6-2.2-1.2-3.3-1.9,2.5-.5,4.9.3,7.1,1.3,2.9.3,5.9.5,8.8.7,1.3-12.5.8-25.1.6-37.7-.3-3.5.1-7.3-1.1-10.6-.9,6.3.2,12.7-.5,19-.1,1-.5,1.9-.9,2.8-.6-2.2-.8-4.4-.7-6.7.3-10,.5-20,.8-29.9h0Z"/><path id="bp" class="dg" d="M186.1,165c.3,0,.9-.1,1.2-.1,0,1,0,1.9,0,2.9-.3,0-1-.1-1.4-.1,0-.9,0-1.7,0-2.6h0Z"/><path id="bq" class="dg" d="M11.8,165.6c2.4-1.5,5.9.5,5.6,3.4,0,2.9-3.8,4.6-6.1,2.8-2.1-1.4-1.8-5,.4-6.1Z"/><path id="br" class="dg" d="M269.7,165.6c2.5-1.3,5.8,1.1,5.3,4-.4,2.8-4.3,4.1-6.3,2.1-2-1.6-1.4-5.1,1-6.1Z"/><path id="bs" class="dg" d="M161.8,166.6c1-.1,2-.3,3.1-.4.2.2.6.6.8.8-1.3.2-2.7.2-3.9-.4h0Z"/><path id="bt" class="dg" d="M195.7,168.5c.3,0,1,0,1.3-.1,0,1,0,1.9,0,2.9-.3,0-1,0-1.3,0,0-.9,0-1.8,0-2.7Z"/><path id="bu" class="dg" d="M161.3,174.8c.5-2-.2-5,2-6.1,3,.2,1.2,4,1.3,6-1.1,0-2.2,0-3.3.1Z"/><path id="bv" class="dg" d="M21.5,176.8c1.3,2.9,1.2,6.1,1.5,9.2-.7-.8-1.2-1.7-1.9-2.5-3.5.2-7.1.8-10.5,1.5,4.4,1.6,9,2.4,13.2,4.4-3.7,2.5-7.5,4.6-11.2,7,3.4-.5,6.9-.2,10.1-1.4.3-.9.6-1.8.8-2.7,1.3,2.1,1,4.8,1.3,7.1-1-.7-1.5-2.3-3-2.2-3.6.1-7.3,0-10.8.8-.2.7-.4,1.5-.5,2.3-.2,0-.6,0-.7.1-.3-1.9-.5-3.8-.7-5.7,3.1-2,6.2-3.9,9.2-6.1-3.5-1.1-6.9-2.1-10.4-3.1-.3-2.2-.7-4.4-.7-6.7.7.9,1.2,1.8,1.9,2.6,3.7-.3,7.3-1,10.9-1.7,1.5,0,1-2.1,1.6-3.1Z"/><path id="bw" class="dg" d="M262.4,179.2c0-.9.3-1.6.8-2.3.2.9.5,1.8.7,2.7,3.6.9,7.5,1.1,11.2,1.4,1.2.2,1.3-1.4,1.8-2.1.2,0,.5.2.7.3-.5,2.9-.2,5.9-1.3,8.7-.6-1-.3-3-1.9-3.1-3.6-.4-7.2-1.1-10.8-.9-1,1.2-.9,2.9-.7,4.4.7,1.3,2.5,1.7,3,3.3-1.6-.4-3.2-.9-4.7-1.4.4-3.6.8-7.2,1.2-10.7h0Z"/><path id="bx" class="dg" d="M228.4,187.4c.8,0,1.6,0,2.3,0-.8,1.1-2.1,1.3-3.3,1.8,2.5,2,6.6-1.4,8.4,2-1.5,1.5-3.4,2.1-5.4,2.2.4.9.9,1.7,1.6,2.4-1.5,1.2-2.5,3-4.5,3.6.8-.9,1.6-1.8,2.4-2.7-.7-.7-1.4-1.4-2.1-2.1-2.1,1.8-2.1,5.9-5.4,6,1.6-1.4,2.9-3.1,3.7-5.1-2.2.7-4.7.9-6.3,2.7-1.3,1.2-2.7,3.1-4.7,2.1,2.2-.7,4-2.3,4.9-4.5-1.3-1.6-3.1-2.7-4-4.6,1.4,1,2.8,2.9,4.8,2.2,1.6-.3,1.1-2.5,1.5-3.6.3.4.9,1.1,1.2,1.4.5,0,1.5-.1,2-.2-.7,1.1-1.4,2.2-2,3.4,1.5-.4,2.9-1.3,4.4-1.7,2.3-.3,5,.5,6.8-1.4l-.2-.9c-2.6-.6-5.5,1-7.7-1,.5-.7.9-1.5,1.5-2.1h0Z"/><path id="by" class="dg" d="M258.5,205.1c.5-3,.8-6.1,2.1-8.9.5,1.1.2,3,1.8,3.2,3.4.8,6.9,1.7,10.3,2.1.8-.6,1.5-1.4,2.2-2-.5,2.9-.7,6-2.1,8.7-.4-1,0-2.8-1.5-3-3.1-.9-6.3-1.5-9.5-2-1.6-.6-2.2,1.3-3.3,2.1h0Z"/><path id="bz" class="dg" d="M13.6,208.6c3.7,0,7.1-2.4,10.9-1.7,2.9.6,4.4,3.6,4.7,6.3.3,1.9-.2,4.2-2,5.3-2.9,1.8-6.5,1.9-9.5,3.4-.7.8-.6,2-1,3-1.1-2.8-1.9-5.8-2.5-8.8,1,.7,1.7,2.4,3.1,1.9,3-.8,6.2-1.3,8.7-3.2,2.5-2,.9-6.4-2.3-6.4-3.2,0-6.5,1.1-9.4,2.5-.4,1-.6,2.1-.9,3.2-.9-2.3-1.6-4.7-2.1-7.2.7.6,1.4,1.2,2.2,1.8h0Z"/><g id="ca"><path id="cb" class="df" d="M254.8,217.6c.7-2.1,1.2-4.3,2.5-6.2.4,1-.3,2.8,1,3.2,3.1,1.3,6.3,2.3,9.5,3.3,1.4.7,2.3-1,3.3-1.7-.8,3.2-1.8,6.3-3,9.3-.6,1.8-2.3,3.7-4.4,3-1.9-.4-2.2-2.4-2.5-4-.8.9-1.5,1.9-2.6,2.4-1.9.7-4.3-.5-4.8-2.5-.6-2.4.3-4.7,1-7h0ZM257.4,223.4c2.6,1,4-1.7,4.8-3.7-1.8-.6-3.6-1.4-5.5-1.5-2.4.9-1.7,4.8.7,5.2ZM263,220c-.2.9-.4,1.8-.5,2.7,0,1.9,2.4,3.1,3.9,2.1,1-.7,1.2-1.9,1.7-2.9-1.7-.7-3.4-1.3-5.1-1.8h0Z"/></g><path id="cc" class="dg" d="M32.1,224.1c1.6,2.6,2.8,5.5,3.5,8.6-.7-.6-1.4-1.3-2.2-1.9-3.9,1.1-7.7,2.8-11.2,4.6,0,.6.2,1.9.3,2.6-2.3-2.1-2.7-5.5-3.9-8.3.9.6,1.7,1.3,2.6,1.8,3.6-1.2,7.3-2.6,10.7-4.4.2-1,.3-2,.3-2.9h0Z"/><path id="cd" class="dg" d="M249.4,232.3c.3,1.4-.2,3.3,1.4,3.9,3.1,1.6,6.2,3.3,9.5,4.6.7-.6,1.5-1.2,2.3-1.7-1.5,4-3.8,7.7-5.6,11.6-1.4-.5-2.9-1.1-4-2,1.3-.4,3.3.3,4.1-1.1.7-1,1.2-2.1,1.7-3.2-1.6-.9-3.2-1.7-4.8-2.5-.5,1.1-1.1,2.1-1.4,3.3.3.9.7,1.7,1,2.6-1.8-.8-3.6-1.6-5.2-2.7.9-.2,1.7-.3,2.6-.4.7-1.1,1.3-2.2,1.9-3.4-1.7-.9-3.5-1.7-5.3-2.3-.9,1.3-1.9,2.7-2.2,4.3.1,1.4,1.2,2.5,1.7,3.9-1.4-.7-2.7-1.7-3.9-2.7,2.1-4.1,4-8.2,6.2-12.2h0Z"/><g id="ce"><path id="cf" class="df" d="M113.5,238.2h57.7v9.1c21,0,42,0,62.9,0-12,19.2-29,35.7-49.6,45.5-7.6,3.6-15.6,6.3-23.9,7.9-1.7.2-3,1.4-4.5,2.2-8.4,4.8-19.2,4.7-27.7,0-1.5-.8-2.9-2-4.6-2.2-17.5-3.4-33.8-11.7-47.4-23.2-10.1-8.5-18.7-18.8-25.8-30,20.9,0,41.9,0,62.8,0,0-3,0-6.1,0-9.1h0ZM114.6,239.3c0,12.8,0,25.7,0,38.5,0,8.9,4.6,17.5,11.9,22.5,7.2,5,16.8,6.4,25,3.4,8.9-3,16-11,18-20.2.8-3.4.7-6.8.7-10.3,0-11.3,0-22.7,0-34-18.5,0-37.1,0-55.6,0Z"/></g><g id="cg"><path id="ch" class="df" d="M27.3,244.8c1.4-4.6,7.9-6.5,11.6-3.4,3.5,2.8,5.2,7.3,7.3,11.1-1.3-.5-2.6-2-4-.9-3.1,1.7-6.4,3.2-9.2,5.4,0,.7.2,2,.3,2.7-1.8-1.7-2.7-4.1-4-6.2-1.5-2.6-3-5.6-2.2-8.7ZM30.2,246.5c-1.7,2.2-.4,5,.8,7.1,3.4-1.6,6.6-3.4,9.8-5.3,1.8-.9.3-3-.7-4-3.1-2.7-7.7-.6-9.9,2.3Z"/></g><g id="ci"><path id="cj" class="df" d="M127.6,246.6c.7-.5,1.4-1,2.1-1.5,4.1,5.3,8.2,10.6,12.4,15.9,4.1-5.3,8.2-10.6,12.4-15.9.7.5,1.3,1.1,2.1,1.7-1.2,1.5-2.4,3.1-3.6,4.6.8.6,1.6,1.2,2.3,1.8,1.2-1.6,2.4-3.1,3.6-4.7.8.6,1.5,1.2,2.3,1.8-.6.8-1.2,1.6-1.8,2.3.8.6,1.6,1.2,2.3,1.8.6-.8,1.2-1.6,1.8-2.3.8.6,1.6,1.1,2.4,1.7-1.2,1.6-2.4,3.2-3.6,4.8-1.6-1.2-3.1-2.4-4.7-3.6-.6.8-1.2,1.6-1.8,2.3,1.6,1.2,3.1,2.4,4.7,3.6-.6.8-1.2,1.6-1.8,2.3-3.1-2.4-6.2-4.9-9.4-7.3-1.8,2.3-3.6,4.7-5.5,7,3.1,4,6.3,8,9.3,12.1,1.1-1.2,2.2-2.6,3.8-3.1,2.5-.8,5.7.4,6.7,2.9,1.2,3,0,6.4-1.6,9,.8.4,2.6.5,2.3,1.9-.4,1.8-2.7.8-4,1-.4,1.2,0,3-1.4,3.6-1.8.2-1.4-1.9-1.5-3-2.9.9-6.3,1.2-8.9-.5-2.4-1.5-2.9-5-1.4-7.3.9-1.4,2.5-2.2,3.9-2.9-3-3.8-6-7.7-9-11.5-3,3.8-6,7.6-8.9,11.5,1.4.7,2.9,1.4,3.7,2.7,1.6,2.2,1.2,5.7-1,7.3-2.7,2-6.2,1.6-9.2.7-.2,1,.4,2.7-1,2.9-1.9.2-1.5-2.4-1.9-3.5-1.1,0-2.1.1-3.2,0-.9-.3-1.1-1.6-.3-2.2.7-.3,1.4-.4,2.1-.6-1.6-2.6-2.8-5.7-1.8-8.7.8-2.8,4.2-4.2,6.9-3.3,1.6.5,2.6,1.9,3.7,3.1,3.1-4,6.2-8,9.3-12.1-1.8-2.3-3.6-4.7-5.5-7-3.1,2.4-6.2,4.9-9.4,7.3-.6-.8-1.2-1.6-1.8-2.3,1.6-1.2,3.1-2.4,4.7-3.6-.6-.8-1.2-1.6-1.8-2.3-1.6,1.2-3.1,2.4-4.7,3.6-1.2-1.6-2.4-3.1-3.6-4.7.8-.6,1.6-1.2,2.4-1.8.6.8,1.2,1.6,1.8,2.4.8-.6,1.6-1.3,2.4-1.9-.6-.8-1.2-1.5-1.8-2.3.8-.6,1.6-1.2,2.4-1.8,1.2,1.6,2.4,3.1,3.6,4.7.8-.6,1.6-1.2,2.3-1.8-1.2-1.6-2.4-3.1-3.6-4.7h0ZM122.9,276.5c-.6,2.9,1.4,5.4,2.5,8,3,.4,6.5,2,9.2-.2,1.9-2.1-.2-5-2.5-5.5-2.6-.4-3-3.6-5.3-4.4-1.5-.6-3.6.3-3.8,2h0ZM153.9,278.1c-1.5.8-3.4,1-4.4,2.6-1,1.4-.7,3.6,1,4.3,2.7,1.3,5.7,0,8.4-.4,1-2.6,3.1-5,2.5-8-.2-1.8-2.3-2.6-3.8-2-1.7.5-2.4,2.4-3.6,3.6h0Z"/></g><g id="ck"><path id="cl" class="df" d="M234.8,258.1c1.2-2.8,3.1-5.4,5.2-7.6,0,1.3-1.1,3,.5,3.8,2.9,2.1,5.8,4.3,8.9,6,.8-.5,1.7-.9,2.6-1.3-1.8,3.2-4,6.3-6.4,9.1-1.3,1.6-3.8,1.9-5.3.4-1.5-1.1-1.3-3.1-1.2-4.7-3.2-.2-6.4,0-9.5.8.9-1.3,1.8-2.7,3.1-3.6,2.7-1.8,6.5.9,8.9-1.6-1.4-1.1-2.9-2.1-4.5-2.8-.8.5-1.5,1-2.3,1.5h0ZM240.9,263.1c.1,1.8,1.9,3.1,3.6,3.1,1.5,0,2.3-1.5,3.1-2.6-1.7-1.3-3.5-2.6-5.3-3.8-.5,1.1-1.3,2.1-1.4,3.3h0Z"/></g><path id="cm" class="dg" d="M48.8,256.2c2.2,1.9,3.6,4.6,5.4,6.8l-.5.5c-.5-.3-1.4-.9-1.9-1.1-3.3,1.7-6.1,4.1-9,6.3-1.3.6-.4,1.9-.2,2.9-.2.1-.5.4-.6.5-1.7-2.4-3.6-4.6-5-7.2,1.3.3,2.6,1.9,3.8.6,2.9-2.1,5.9-4,8.4-6.5,0-1-.3-1.9-.5-2.8h0Z"/><path id="cn" class="dg" d="M52.4,272c.4-2.3,3-4,5.2-3.4,3.1.7,5.2,3.6,6.1,6.5-1,1.3-1.9,2.6-3.1,3.7.1-2.4,1.7-5.5-.5-7.4-1.3-1.4-3.7-.6-4,1.3-.3,2.5,1.6,4.7,1.3,7.1-.2,2.6-3.3,4.1-5.5,3.2-2.5-.8-3.9-3.1-5.1-5.2,1-1.1,1.8-2.5,3.3-3-.3,1.8-1.5,3.9,0,5.5,1.1,1.6,3.9.8,3.9-1.2-.2-2.4-1.9-4.6-1.5-7.1h0Z"/><path id="co" class="dg" d="M218.7,276.7c2.1-2.5,4.3-4.8,6.7-6.9-.1,1.3-1.4,3,0,4,2.6,2.7,5.4,5.2,8,7.7.6-.8,1.4-1.6,1.9-2.6.2-1.3-.4-2.6-.5-3.9,1.3,1.2,2.4,2.4,3.6,3.7-2,1-3.4,2.8-5,4.4-1.8,1.9-3.8,3.6-5,6-1.3-1.1-2.6-2.2-3.8-3.3,1.1-.2,2.2.3,3.3.5,1.3-.3,2.1-1.5,3.1-2.2-2.7-2.6-5.4-5.3-8.2-7.7-1.2-1.3-2.6.3-4,.3h0Z"/><path id="cp" class="dg" d="M65.5,282.4c.6-1.5,2.1-2.3,3.3-3.3,3.4,3.1,7.4,5.6,10.4,9.1-1.2,0-2.8-1.4-3.7-.1-2.5,2.8-4.9,5.6-7,8.7.4.8.8,1.7,1,2.6-3.5-2.5-6.7-5.4-10-8.1.9-1.2,1.7-2.6,3-3.3-.2,1.1-.5,2.2-.5,3.4.9,1.3,2.1,2.2,3.3,3.1,1.2-1.3,2.4-2.7,3.5-4.1-1.1-.9-2.2-1.7-3.3-2.4-.5.3-1.4.9-1.9,1.2.2-2.1,2.1-3.4,3.3-4.9,0,.9,0,1.9.2,2.8.8.9,1.7,1.6,2.6,2.4,1.2-1.4,2.4-2.9,3.5-4.5-1.1-1.3-2.3-2.7-4-3.3-1.3,0-2.4.7-3.7,1Z"/><g id="cq"><path id="cr" class="df" d="M210.1,284.9c1-2.2,3.3-3.4,5.4-4.5-2,2.7-.3,5.9.3,8.8.7,2.8,1.6,5.6,2.1,8.4-.2.2-.6.5-.8.7-4.2-2.1-8.1-4.8-12.4-6.9-1.1-.6-2.4.1-3.5.3,1.4-2.3,4-3.5,5.9-5.2.2.1.7.3.9.4-.3.4-.9,1.1-1.2,1.5,1,.7,2.1,1.4,3.1,2.1,1.2-1,2.5-1.9,3.7-2.9-.4-1.1-.8-2.2-1.3-3.4-.8.3-1.5.5-2.3.8ZM211.2,291c1.5.9,3,1.8,4.5,2.7-.5-1.7-1-3.4-1.5-5-1,.8-2,1.5-3,2.3h0Z"/></g><g id="cs"><path id="ct" class="df" d="M81,289.6c2.8,1,5.2,2.6,7.6,4.3-.6,0-1.7.1-2.3.2-.4,1.1-.5,2.3-.8,3.4,1.4.8,2.7,1.6,4.1,2.4.9-.8,1.7-1.6,2.6-2.5-.5-.7-1.1-1.4-1.6-2.1,2.4.6,4.5,2,6.4,3.5-1.4.1-3-.3-4.2.6-3.3,2.3-6.4,4.7-9.6,7.1-.7.6-1.6.7-2.5.9.6-5.2,1.7-10.3,2-15.5-.6-.8-1.1-1.6-1.7-2.4ZM85.3,298.9c-.3,1.7-.6,3.5-.8,5.2,1.4-1.1,2.8-2.2,4.1-3.3-1.1-.6-2.2-1.3-3.3-1.9Z"/></g><path id="cu" class="dg" d="M187.7,298.9c2.4-2.2,5.5-3.4,8.4-4.8-.6.9-1.2,1.8-1.7,2.8,1.5,3.8,3.8,7.3,5.6,10.9.9-.7,1.9-1.3,2.8-2.1.2-1.2.2-2.4.3-3.5,1.1,1.3,1.8,2.9,2.5,4.5-2.6.4-4.7,1.9-7,3.1-2,1.1-4.2,2-5.8,3.7-.9-1.5-1.8-3-2.4-4.7,1,.6,1.9,1.3,2.9,1.8,1.3,0,2.4-.8,3.5-1.3-2.1-3.6-3.6-7.5-6.1-10.8-1,0-2,.2-3,.3h0Z"/><g id="cv"><path id="cw" class="df" d="M98.3,299.2c2.2.6,5,1.5,5.6,4,.8,2.1.3,5,2.6,6.2.6-1.6,1.2-3.1,1.5-4.8-.6-.8-1.4-1.5-2-2.2,3,.6,5.8,1.8,8.6,3-.9.3-1.9.4-2.8.4-1.6,3.2-2.7,6.6-3.9,10-.8,1.4.9,2.4,1.5,3.5-3.6-1.2-7.2-2.3-10.5-4-1.9-1-2.6-3.6-1.3-5.3.8-1.4,2.6-1.5,4-1.9-.6-3.1-1.5-6.2-3.2-8.9h0ZM101.5,315.1c.8.5,1.6.8,2.5,1.1.8-2,1.5-4.1,2.3-6.1-1.2-.2-2.5-.8-3.8-.4-2,.9-2.7,4-1,5.4h0Z"/></g><path id="cx" class="dg" d="M178.7,302.4c.3,0,.9.1,1.2.1-.7.5-1.4,1-2.2,1.5,1,4,2.1,8,4,11.6.5,0,1.6,0,2.1,0,0,.2.3.5.3.7-2.8.9-5.5,2-8.4,2.6.6-1,2.5-1.8,1.9-3.2-1-3.2-2-6.5-3.3-9.6-.4-1.3-2.2-.6-3.2-1,2.3-1.5,5-2.2,7.6-2.9h0Z"/><g id="cy"><path id="cz" class="df" d="M123.8,307.2c3,.3,5.9.9,8.8,1.4,0,.2,0,.5,0,.7-.8.3-2.3,0-2.5,1.2-.8,3.6-1.4,7.2-1.8,10.9.6.8,1.4,1.4,2.1,2.2-3.7-.6-7.6-.9-11.2-2.2-2.8-1-3.3-5-1.2-6.9,2.2-1.8,5.4-1.7,7.9-.6.1-1.5.7-3.1.3-4.6-.8-.7-1.6-1.3-2.4-2h0ZM122.2,314.8c-1.6.8-2.1,2.9-1.6,4.5.5,1.5,2.3,2,3.7,2.1.8-2.1.9-4.3,1.3-6.5-1.1-.1-2.3-.6-3.4,0h0Z"/></g><path id="da" class="dg" d="M154.9,309.1c2.3-2.3,5.9-2.5,8.8-1.7.6,1.5,1.1,3,1.5,4.6-2-1.1-3.2-3.8-5.9-3.7-1.8,0-3.2,2-2.2,3.6,1.5,2.4,5,1.6,7.1,3.3,2.1,1.5,1.7,4.9-.2,6.3-2,1.7-4.8,1.6-7.3,1.6-.5-1.4-.9-2.9-1-4.4,1.5,1.1,2.6,3.4,4.8,3.1,1.9,0,2.8-2.9,1.1-3.9-2.1-1.1-4.7-.9-6.6-2.4-1.8-1.5-1.9-4.6-.2-6.2h0Z"/><path id="db" class="dg" d="M141,313.7c2.7-1.4,6,1.6,5,4.4-.5,2.5-3.9,3.7-5.8,2-2.1-1.6-1.7-5.4.8-6.4h0Z"/><g id="dc"><path id="dd" class="de" d="M227.9,157c1-.4,1.4,0,1.1,1-1,.4-1.4,0-1.1-1Z"/></g></svg>