<?xml version="1.0" encoding="UTF-8"?>
<svg width="800px" height="403px" viewBox="0 0 800 403" version="1.1" xmlns="http://www.w3.org/2000/svg" xmlns:xlink="http://www.w3.org/1999/xlink">
    <title>nwo</title>
    <g id="Page-1" stroke="none" stroke-width="1" fill="none" fill-rule="evenodd">
        <g id="nwo" transform="translate(0.000000, 0.990276)" fill-rule="nonzero">
            <g id="Group" transform="translate(399.934512, 200.732697) scale(-1, 1) rotate(-180.000000) translate(-399.934512, -200.732697) translate(0.000000, 0.000000)">
                <path d="M430.47576,401.332932 C354.190122,399.428172 274.76163,386.094852 193.904568,361.618686 C170.571258,354.475836 145.904616,345.904416 128.190348,338.666328 C111.999888,331.999668 111.047508,331.42824 110.95227,328.380624 C110.95227,325.333008 109.237986,324.952056 129.99987,332.38062 C193.33314,354.952026 267.999732,370.666296 343.523466,377.237718 C363.713922,378.952002 439.809084,378.952002 457.999542,377.237718 C507.332826,372.475818 542.285172,365.523444 570.570858,354.952026 C597.808926,344.666322 617.14224,330.571098 624.666042,315.333018 C627.14223,310.190166 627.523182,308.475882 627.523182,299.9997 C627.523182,291.142566 627.237468,289.99971 623.904138,283.047336 C619.237476,273.237822 613.33272,266.856876 599.332734,256.380696 C588.189888,247.999752 587.999412,247.714038 587.999412,243.904518 C587.999412,240.094998 588.09465,239.99976 590.285124,241.142616 C595.523214,243.904518 612.189864,255.333078 619.99938,261.714024 C649.142208,285.142572 663.523146,308.666358 660.285054,327.61872 C658.666008,336.856806 654.951726,343.713942 647.046972,352.285362 C625.332708,375.428196 588.856554,388.761516 524.475666,396.856746 C499.142358,400.094838 458.57097,401.999598 430.47576,401.332932 Z" id="Path" fill="#EA332B"></path>
                <path d="M439.809084,250.761654 C438.951942,249.52356 433.428138,239.237856 427.523382,227.999772 C386.380566,149.809374 367.428204,121.809402 319.52349,67.999932 C311.42826,58.952322 303.618744,49.618998 302.190174,47.333286 C298.380654,41.238054 297.428274,41.999958 301.142556,48.190428 C316.66635,74.571354 337.428234,126.095112 345.999654,159.333174 C352.666314,185.523624 356.094882,213.428358 354.094884,226.761678 C352.761552,236.285478 348.761556,244.571184 343.999656,247.809276 C336.952044,252.571176 324.856818,249.52356 312.094926,239.714046 C300.094938,230.47596 283.523526,211.809312 272.190204,194.856948 C266.571162,186.476004 256.952124,169.04745 257.047362,167.14269 C257.047362,166.380786 259.04736,165.999834 262.761642,165.999834 L268.475922,165.999834 L272.190204,173.237922 C281.333052,190.95219 293.33304,205.428366 301.523508,208.57122 C310.666356,212.095026 314.190162,208.57122 314.76159,195.142662 C316.571112,158.666508 295.047324,86.285628 262.475928,19.238076 L253.142604,0 L259.333074,0 L265.523544,0 L279.99972,13.238082 C301.90446,33.238062 343.142514,74.857068 355.523454,89.333244 C374.190102,111.142746 394.190082,138.857004 403.999596,156.285558 C405.809118,159.52365 407.428164,161.9046 407.61864,161.714124 C408.09483,161.237934 402.475788,134.28558 397.904364,114.476076 C388.190088,72.761832 376.1901,37.333296 363.047256,11.047608 C360.285354,5.523804 357.999642,0.761904 357.999642,0.47619 C357.999642,0.190476 360.380592,0 363.33297,0 L368.761536,0 L393.142464,24.76188 C438.190038,70.571358 473.142384,109.809414 495.332838,139.904622 C508.666158,157.809366 528.761376,193.237902 536.475654,212.475978 C542.8566,228.380724 545.71374,244.856898 542.951838,250.094988 C539.99946,255.618792 527.808996,247.809276 514.2852,231.714054 C502.951878,218.380734 501.999498,216.571212 501.999498,209.04741 C501.999498,183.428388 486.761418,149.618898 459.428112,113.999886 C452.666214,105.142752 444.570984,95.71419 415.142442,62.38089 C408.856734,55.333278 402.761502,47.999952 401.618646,46.285668 C400.47579,44.476146 399.142458,43.047576 398.666268,43.047576 C398.285316,43.047576 399.04722,44.476146 400.380552,46.285668 C401.713884,47.999952 405.332928,54.190422 408.285306,59.99994 C427.713858,97.61895 442.570986,148.761756 446.951934,192.85695 C449.142408,214.2855 447.809076,240.856902 444.094794,250.285464 C442.8567,253.618794 441.713844,253.714032 439.809084,250.761654 Z" id="Path" fill="#000000"></path>
                <path d="M667.61838,244.475946 C619.618428,236.66643 585.427986,203.237892 576.380376,155.23794 C574.189902,143.523666 574.189902,121.333212 576.380376,109.809414 C581.618466,82.190394 594.666072,59.99994 615.332718,43.523766 C634.856508,27.904734 658.380294,19.99998 685.427886,19.99998 C757.523052,19.99998 807.713478,76.857066 798.856344,148.476042 C792.951588,196.66647 759.04686,233.3331 711.046908,243.523566 C700.380252,245.809278 678.57075,246.285468 667.61838,244.475946 Z M704.7612,214.380738 C734.28498,208.285506 757.523052,186.476004 766.094472,156.856986 C769.04685,146.285568 769.713516,128.285586 767.523042,116.476074 C762.284952,88.476102 744.094494,65.428506 719.142138,55.428516 C707.523102,50.666616 701.237394,49.52376 687.046932,49.52376 C672.761232,49.52376 666.475524,50.666616 654.856488,55.428516 C621.42795,68.952312 602.094636,103.33323 606.094632,142.476048 C609.808914,179.237916 634.189842,206.761698 669.618378,214.380738 C678.856464,216.380736 695.332638,216.380736 704.7612,214.380738 Z" id="Shape" fill="#EA332B"></path>
                <path d="M-3.16912011e-29,132.476058 L-3.16912011e-29,21.999978 L13.999986,21.999978 L27.999972,21.999978 L27.999972,105.999894 C27.999972,158.57127 28.380924,189.99981 28.952352,189.99981 C29.99997,189.99981 30.380922,189.52362 83.999916,124.571304 C103.523706,100.95228 130.666536,68.190408 144.28557,51.809472 L169.04745,21.90474 L181.809342,22.190454 L194.475996,22.476168 L194.76171,132.761772 L195.047424,243.047376 L180.47601,243.047376 L165.999834,243.047376 L165.999834,158.380794 C165.999834,109.237986 165.618882,73.999926 165.142692,74.190402 C164.571264,74.380878 153.999846,86.857056 141.42843,101.999898 C108.666558,141.618906 87.14277,167.714118 38.57139,226.285488 L24.666642,243.047376 L12.285702,243.047376 L-3.16912011e-29,243.047376 L-3.16912011e-29,132.476058 Z" id="Path" fill="#000000"></path>
            </g>
        </g>
    </g>
</svg>