<?xml version="1.0" encoding="utf-8"?>
<!-- Generator: Adobe Illustrator 18.0.0, SVG Export Plug-In . SVG Version: 6.00 Build 0)  -->
<svg version="1.2" baseProfile="tiny" id="Layer_1" xmlns="http://www.w3.org/2000/svg" xmlns:xlink="http://www.w3.org/1999/xlink"
	 x="0px" y="0px" viewBox="0 0 1920 560" xml:space="preserve">
<g>
	<g>
		<path d="M321,495.9c-4-7.5-2.5-10.1,5.3-11.2c6.3-0.8,12.7-1.5,18.7-3.3c15.3-4.7,21.3-13.1,21.4-29.2
			c0.5-62.7,1.1-125.4,1.4-188.1c0.2-40.9,0.1-81.8,0.1-122.7c0-2.7,0-5.4,0-8.5c-28,0-55.4,0-84.2,0c2.6,1.5,4.1,2.2,5.5,3.1
			c10.3,6.5,21.5,12,30.9,19.7c20.3,16.7,30,39,29.4,65.3c-0.8,32.3-11.3,60.4-36.5,81.9c-14.3,12.2-31.7,17.5-49.5,21.3
			c-32.4,7-65.1,9.3-98.2,7.4c-2.2-0.1-4.4,0-7.1,0c-0.2,2.4-0.5,4.4-0.5,6.4c-0.1,37.7-0.1,75.4-0.2,113.1c0,1.8,0.1,3.6,0.2,5.4
			c0.5,11.2,6.1,19.2,16.4,22.8c7.2,2.5,15,3.4,22.5,4.8c3.9,0.7,8,1,11.6,1.4c2.7,8.3,1.5,10.5-5.4,10.5c-49.3,0-98.6,0-147.9,0
			c-1.1,0-2.2-0.2-4.5-0.4c-0.2-3.1-0.4-6.2-0.6-10.3c6.4-0.5,11.9-0.2,17.1-1.4c8.1-1.8,16.4-3.7,23.9-7c8.5-3.8,12.4-11.6,12.5-21
			c0.3-30.2,1-60.4,0.9-90.6c-0.1-69.5-0.5-139-0.9-208.5c-0.1-17.7-6.5-26.3-23.5-31.1c-6.1-1.7-12.5-2.2-18.7-3.2
			c-2.2-0.4-4.9,0-6.6-1.2c-1.7-1.2-3.1-3.8-3.1-5.8c0.1-1.6,2.2-3.7,4-4.5c1.7-0.8,4-0.3,6.1-0.3c134,0,268.1,0,402.1,0
			c0.9,0,1.8,0,2.7,0c7.5,0.1,8.5,1.5,6.4,10.1c-2.9,0.5-6.2,0.9-9.4,1.7c-8.5,2.2-17.3,3.9-25.3,7.3c-8.6,3.6-12.6,11.1-12.6,20.8
			c-0.2,101.8-0.5,203.6-0.7,305.3c0,10.3,4.7,18.2,14,22.2c6.8,2.9,14.2,4.3,21.5,6c3.5,0.8,7.1,0.9,11.5,1.4c0,3.5,0,6.6,0,10.2
			C421.2,495.9,371.3,495.9,321,495.9z M159.6,133.7c0,60.5,0,119.4,0,179.2c15.8-0.9,31.4-1.7,47-2.7c12.1-0.7,23.7-3.7,34.7-8.9
			c27.4-12.8,45.6-32.8,51.1-63.4c7.5-41.5-16.1-81.8-56.3-94.6c-9.4-3-19.3-5.2-29.2-6.3C191.7,135.3,176.3,134.8,159.6,133.7z"/>
		<path d="M368.4,88.6c-72,0-142.3,0-212.6,0c-0.1-0.3-0.2-0.6-0.2-0.8c9.4-2.7,18.7-5.4,28.1-8c24.2-6.7,48.4-13.4,72.7-20
			c2.7-0.7,6-1.1,8.6-0.4c33.4,9.1,66.8,18.4,100.2,27.7C365.8,87.3,366.3,87.6,368.4,88.6z"/>
	</g>
	<g>
		<path fill="#FFFFFF" d="M1204.9,112.2c-13.5,39.7-26.2,77-38.8,114.3c-1.7-0.2-3.3-0.5-5-0.7c-11.5-37.4-23-74.9-34.5-112.2
			c-16.5,0-31.6,0-46.7,0c-0.1,0.9-0.3,1.8-0.4,2.7c4.8,1.6,9.7,3.3,14.2,4.8c0,50.8,0,100.3,0,149.2c-5.6,2.4-10,4.2-18,7.6
			c16.7,0,28.9,0,41.1,0c0.1-0.9,0.1-1.8,0.2-2.8c-5.7-1.7-11.4-3.4-16.9-5.1c0-43.1,0-84.9,0-126.7c1.3-0.3,2.6-0.6,3.8-0.9
			c15,47,30,93.9,45,140.9c1.8-0.1,3.6-0.3,5.4-0.4c15.6-47,31.3-94,46.9-141c1.3,0.5,2.7,0.9,4,1.4c0,42.3,0,84.6,0,126.9
			c-6.5,1.8-12.2,3.4-17.9,5.1c0.3,0.8,0.5,1.5,0.8,2.3c21.1,0,42.2,0,63.2,0c0-0.9,0.1-1.9,0.1-2.8c-5.3-1.3-10.7-2.6-16.5-4
			c0-50.3,0-99.8,0-149.4c6.3-2,11.6-3.7,16.9-5.4c-5-3.3-9.1-3.8-13.2-3.8C1227.9,112.1,1217.2,112.2,1204.9,112.2z"/>
		<path fill="#FFFFFF" d="M1324.7,270.1c0-23.7,0-47.5,0-71.8c22.8-1.8,27.8,14.1,34,28.8c0-21.4,0-42.8,0-64.3
			c-7.6,14.7-12.8,30.1-34.5,25.6c0-22.9,0-44.9,0-67.6c34.4-6.9,56.2,5.3,66.3,37.6c0-14.8,0-29.6,0-44.9c-37.9,0-74.4,0-111,0
			c-0.1,0.9-0.3,1.8-0.4,2.7c4.9,1.8,9.7,3.7,14.6,5.5c0,50.1,0,98.9,0,148.1c-5.3,2.1-10.1,3.9-14.9,5.8c0.2,0.9,0.5,1.8,0.7,2.7
			c38.2,0,76.5,0,116,0c0-17.1,0-33,0-50.3C1374.8,270.7,1362.8,277.7,1324.7,270.1z"/>
		<path fill="#FFFFFF" d="M1702.2,226.3c-19.7,44-32.4,51.6-71.1,43.7c0-23.7,0-47.5,0-71.8c22.6-1.2,28.5,13.5,33.3,29.6
			c0-21.9,0-43.7,0-65.6c-10,24-13.1,26.5-35,25.9c0-11.3,0-22.7,0-34.1c0-11.2,0-22.5,0-38.2c17.7,4.1,33.3,4.1,44.4,11.3
			c10.4,6.7,15.9,21,23.6,31.9c0-15.1,0-30,0-45.6c-38.2,0-75,0-111.8,0c-0.3,1-0.5,2-0.8,3c5.3,2,10.7,4,15.7,5.8
			c0,50.3,0,99.2,0,148c-5.5,2.2-10.4,4.2-20,8.1c43.9,0,82.4,0,121.8,0C1702.2,261,1702.2,245.4,1702.2,226.3z"/>
		<path fill="#FFFFFF" d="M1791.8,338.1c36.4-5.3,61,6,72.5,41.1c0-15.3,0-30.5,0-46.7c-40.2,0-78.9,0-121.4,0
			c7.8,3.6,12.3,5.6,16.1,7.3c0,51.1,0,100.6,0,149.8c-5.4,2-10,3.6-14.5,5.2c0.3,0.6,0.5,1.2,0.8,1.8c41.2,0,82.5,0,124.7,0
			c0-17.6,0-33.4,0-52c-23.1,44.3-38.7,52.9-78.2,44.5c0-23.7,0-47.5,0-71.5c22.6-3.3,30.8,9.8,37.2,26.5c0-21.5,0-43,0-68.9
			c-11.5,29.2-13.7,31.1-37.1,32.8C1791.8,385.5,1791.8,363,1791.8,338.1z"/>
		<path fill="#FFFFFF" d="M649.3,488.7c-4.6,1.9-9.9,4.1-18.9,7.8c18.1,0,32.3,0,46.4,0c0-0.8,0.1-1.6,0.1-2.5
			c-6.6-1.4-13.2-2.8-18.5-3.9c0-46.9,0-92,0-141c38.9,51.8,69.5,103.9,106.6,151.1c1.5-0.7,3.1-1.5,4.6-2.2c0-53,0-105.9,0-158.7
			c6.3-1.9,11.1-3.3,15.9-4.7c-0.1-0.7-0.3-1.4-0.4-2c-13.4,0-26.8,0-40.2,0c-0.1,0.7-0.2,1.5-0.3,2.2c5.8,1.5,11.6,2.9,17.7,4.4
			c0,32.2,0,63.4,0,94.6c-1.2,0.5-2.4,1-3.7,1.5c-23.5-34.6-47.1-69.2-69.7-102.4c-19.2,0-36,0-57.9,0c9.2,3.5,13.6,5.2,18.2,7
			C649.3,389.4,649.3,438.2,649.3,488.7z"/>
		<path fill="#FFFFFF" d="M794.5,159.9c0-16.5,0-31.4,0-46.7c-37.9,0-74.2,0-110.4,0c-0.3,0.9-0.6,1.8-0.9,2.7
			c5.2,2.2,10.4,4.4,15.1,6.4c0,50.4,0,99.2,0,148c-5.4,2-10.1,3.7-14.7,5.4c0.2,0.8,0.4,1.5,0.7,2.3c38.3,0,76.6,0,115.5,0
			c0-17.1,0-32.9,0-52.3c-14,38-28.1,54.1-71.5,43.5c0-23.1,0-46.5,0-70.1c24.3-5.2,26.8,15.2,35.5,31.8c0-25.4,0-46.6,0-67.7
			c-8.8,12.6-13.4,29.3-35.1,25.6c0-23.1,0-45.6,0-67.8C764.3,115.3,774.5,121.3,794.5,159.9z"/>
		<path fill="#FFFFFF" d="M1310.7,490c0-52.7,0-102.5,0-152.5c34.3-2.1,42.9,21.2,52,45.1c0-16.1,0-32.3,0-49.8
			c-47,0-92.5,0-139.6,0c0,17.6,0,34.1,0,50.5c11.9-33.6,21.9-49.7,53.9-43.4c0,24.5,0,49.5,0,74.4c0,25,0,50.1,0,74.4
			c-6.2,2.6-10.6,4.4-15,6.2c0.3,0.7,0.6,1.3,0.9,2c20.5,0,40.9,0,61.4,0c0.2-0.9,0.3-1.9,0.5-2.8
			C1319.9,492.8,1315.1,491.3,1310.7,490z"/>
		<path fill="#FFFFFF" d="M910.4,337.2c-12.2-3.1-23.6-7.7-35.4-8.7c-32.9-2.6-54.6,20-52.7,52.9c1.2,20.3,13,32.7,30,41.4
			c12.1,6.2,24.9,11.3,36.4,18.5c10.9,6.9,16.9,17.1,12.9,31.2c-4.3,15-15,19.8-29.2,20.2c-20,0.5-31.8-10.9-40.2-27.3
			c-3-5.9-5.3-12.2-9.6-22c0,18.7,0,32.8,0,49.7c15.7,2.5,30.3,6.5,45,6.8c36.6,0.8,59.1-26.1,52.8-61.7
			c-3.1-17.6-13.6-29.6-29.1-37.7c-12.7-6.6-25.8-12.6-37.9-20.2c-12.4-7.8-13.4-19.8-7.1-32.1c5.8-11.5,19.3-16.6,31.3-9.8
			c8.8,5.1,15.7,13.9,22.5,21.9c3.7,4.4,5.5,10.4,8.1,15.7c1.4-0.4,2.7-0.8,4.1-1.2C911.7,362.9,911.1,351.1,910.4,337.2z"/>
		<path fill="#FFFFFF" d="M1040.5,490c0-51.1,0-101.1,0-150.9c29.1-2.9,37.3,4.1,52.7,45.1c0-18.3,0-34.2,0-51.3
			c-46.8,0-92.3,0-138.1,0c0,16.9,0,32.2,0,47.6c12.5-35.3,22.7-44.1,51.9-41.6c0,50,0,100.1,0,150.8c-4.6,1.5-9.3,3-14,4.5
			c0.2,0.8,0.4,1.7,0.7,2.5c21.1,0,42.3,0,63.4,0c0.1-1,0.2-1.9,0.3-2.9C1051.7,492.7,1046,491.3,1040.5,490z"/>
		<path fill="#FFFFFF" d="M1624.3,337.4c0,51.8,0,101.8,0,152.5c-5.3,1.5-10.3,2.8-15.2,4.2c0.1,0.8,0.3,1.5,0.4,2.3
			c21.2,0,42.3,0,63.5,0c0-0.9,0.1-1.8,0.1-2.7c-5.2-1.2-10.4-2.4-15.6-3.6c0-51,0-101,0-151.2c15.2-3.8,27.7,0,35.9,10.8
			c7.2,9.6,11.1,21.6,16.6,32.9c0-17,0-33.1,0-49.5c-47.2,0-92.7,0-139.1,0c0,17.6,0,33.6,0,49.6
			C1579.1,357.6,1589.5,335.9,1624.3,337.4z"/>
		<path fill="#FFFFFF" d="M1409.6,339.7c0,8.7,0,16.6,0,24.4c0,31.6-1.1,63.3,0.7,94.8c0.6,11,5.8,26,14,31.3
			c24.3,15.8,52.4,14.6,78.4,3.5c22-9.3,23-30.9,22.9-51.6c-0.1-34.4,0-68.8,0-102.4c5.9-2.3,9.9-3.9,17.6-7c-16.9,0-29.4,0-41.9,0
			c-0.1,0.8-0.1,1.5-0.2,2.3c5.2,1.1,10.5,2.1,17.1,3.5c0,40.9,0.9,81-0.3,121.1c-0.7,21.6-16.2,33-39.8,33.1
			c-23,0.1-37-10.2-37.7-32.2c-1.3-40.1-0.4-80.2-0.4-120.2c6.5-2.5,11.4-4.4,20.3-7.8c-25.3,0-45.9,0-66.5,0
			c-0.1,0.6-0.2,1.2-0.3,1.8C1397.9,335.8,1402.3,337.3,1409.6,339.7z"/>
		<path fill="#FFFFFF" d="M1555.6,113.4c-44.2,0-85.7,0-127.8,0c0,17.2,0,33,0,51.8c17-43.7,23.2-49,49.2-42.8
			c0,49.2,0,98.5,0,147.2c-5.6,2.8-9.8,4.9-17.1,8.5c23.2,0,42.1,0,60.9,0c0.1-0.9,0.3-1.8,0.4-2.7c-4.9-1.8-9.8-3.5-14.5-5.2
			c0-50.3,0-99.7,0-149c14.8-4.9,26.1-0.7,33.5,10.2c6.3,9.3,9.8,20.5,15.2,32.5C1555.6,146.1,1555.6,130.5,1555.6,113.4z"/>
		<path fill="#FFFFFF" d="M584.5,490c0-50.9,0-101.1,0-150.8c4.7-1.9,8.6-3.5,16.2-6.6c-24.1,0-43.8,0-63.4,0
			c-0.1,0.7-0.2,1.4-0.3,2.1c4.4,1.4,8.9,2.8,13.9,4.5c0,50.5,0,100.6,0,151.2c-6.3,1.2-11.6,2.2-16.9,3.2c0.1,1,0.2,2,0.2,3
			c21.5,0,43,0,64.6,0c0.1-0.8,0.3-1.6,0.4-2.4C594.3,492.8,589.4,491.4,584.5,490z"/>
		<path fill="#FFFFFF" d="M1141.8,339.3c0,51.3,0,100.8,0,150.4c-5.2,1.7-9.8,3.2-14.3,4.8c-0.1,0,0.2,1.1,0.3,2.1
			c20.9,0,41.8,0,62.8,0c0.1-1,0.2-1.9,0.3-2.9c-5.5-1.3-11.1-2.6-16.2-3.8c0-51,0-100.5,0-150.1c5.2-2.2,9.5-4.1,16.3-7.1
			c-22.8,0-42.3,0-61.9,0c-0.1,0.6-0.2,1.2-0.3,1.8C1132.7,336,1136.6,337.4,1141.8,339.3z"/>
		<path fill="#FFFFFF" d="M990,275.1c0.3,1.1,0.5,2.3,0.8,3.4c18.9,0,37.8,0,56.7,0c0.3-0.9,0.6-1.7,0.9-2.6
			c-4.6-2.1-9.2-4.2-14.1-6.3c0-49.7,0-99.1,0-147.9c5.4-2.4,9.8-4.4,16.8-7.5c-23.1,0-42.3,0-61.6,0c0,0.9-0.1,1.8-0.1,2.6
			c5.2,1.5,10.3,3,15.4,4.5c0,50.7,0,100,0,149.4C999.2,272.4,994.6,273.8,990,275.1z"/>
		<path d="M1204.9,112.2c12.3,0,23-0.1,33.7,0c4.1,0,8.2,0.5,13.2,3.8c-5.3,1.7-10.7,3.4-16.9,5.4c0,49.6,0,99.1,0,149.4
			c5.8,1.4,11.2,2.7,16.5,4c0,0.9-0.1,1.9-0.1,2.8c-21.1,0-42.2,0-63.2,0c-0.3-0.8-0.5-1.5-0.8-2.3c5.7-1.6,11.4-3.2,17.9-5.1
			c0-42.3,0-84.6,0-126.9c-1.3-0.5-2.7-0.9-4-1.4c-15.6,47-31.3,94-46.9,141c-1.8,0.1-3.6,0.3-5.4,0.4c-15-47-30-93.9-45-140.9
			c-1.3,0.3-2.6,0.6-3.8,0.9c0,41.8,0,83.6,0,126.7c5.6,1.7,11.3,3.4,16.9,5.1c-0.1,0.9-0.1,1.8-0.2,2.8c-12.2,0-24.3,0-41.1,0
			c8-3.4,12.4-5.2,18-7.6c0-48.9,0-98.3,0-149.2c-4.5-1.5-9.3-3.2-14.2-4.8c0.1-0.9,0.3-1.8,0.4-2.7c15.1,0,30.2,0,46.7,0
			c11.5,37.4,23,74.8,34.5,112.2c1.7,0.2,3.3,0.5,5,0.7C1178.7,189.2,1191.4,151.9,1204.9,112.2z"/>
		<path d="M912,192.9c28.6,6.2,36.3,23.6,35.1,47.1c-0.8,14.5,1.3,28.3,17.2,37.2c-36,4.8-45.2-2.9-46.4-36.2
			c-0.1-3.6-0.3-7.2-0.4-10.8c-1.4-28.2-9.1-34.5-38.9-30.9c0,23.3,0,46.8,0,71.5c5.9,1.2,11.9,2.5,17.9,3.7c0,1,0,1.9,0,2.9
			c-20.8,0-41.7,0-67.9,0c9.4-3.6,14.1-5.4,19.4-7.4c0-49.7,0-99.2,0-149c-5.3-1.5-9.9-2.7-16.3-4.5c2.7-2.1,4-4,5.3-4
			c20.8-0.3,41.7-0.6,62.5-0.3c24,0.3,36.8,7.9,41.6,23.7c6.2,20.2-1.3,38.9-20.7,51.6C918.7,188.7,916.9,189.8,912,192.9z
			 M878.3,189.3c22.7,1.6,29.2,0.8,30.6-9.9c2.1-17.1,2.3-35.4-2-51.9c-3-11.4-17.2-8.9-28.6-7.2
			C878.3,143.6,878.3,165.6,878.3,189.3z"/>
		<path d="M1859.7,278.6c-30.8,2.3-38.6-4.5-39.4-37.2c-0.1-3.6,0-7.2-0.2-10.8c-1.4-27.6-9.8-34.6-38.7-31.3
			c-0.5,2.4-1.6,5.1-1.6,7.8c-0.1,20.8-0.1,41.6-0.1,63.7c6.5,1.3,12.4,2.6,18.4,3.8c-0.1,1-0.1,2-0.2,3.1c-20.3,0-40.6,0-61,0
			c-0.3-0.7-0.6-1.5-0.9-2.2c4.7-1.8,9.4-3.7,14.6-5.7c0-49.4,0-98.1,0-148.3c-4.9-1.7-9.8-3.3-15-5.1c1.4-1.8,2.1-3.6,2.8-3.6
			c20.8-0.3,41.7-0.9,62.5-0.6c25.2,0.3,37.7,8.1,42.5,25.3c5.3,18.8-2.1,36.5-20.6,49.8c-1.7,1.2-3.5,2.4-7.6,5.2
			c29.5,6.8,34.3,27.5,34.8,52.2C1850.4,255.7,1856.1,266.5,1859.7,278.6z M1781.3,120.6c0,22.7,0,45.8,0,68.4
			c23.1,6.7,34.1-3.2,34.3-34C1815.7,128.6,1807.2,114.5,1781.3,120.6z"/>
		<path d="M1324.7,270.1c38.1,7.6,50.1,0.6,70.8-42.1c0,17.3,0,33.2,0,50.3c-39.6,0-77.8,0-116,0c-0.2-0.9-0.5-1.8-0.7-2.7
			c4.8-1.9,9.6-3.7,14.9-5.8c0-49.2,0-98,0-148.1c-4.9-1.9-9.8-3.7-14.6-5.5c0.1-0.9,0.3-1.8,0.4-2.7c36.5,0,73.1,0,111,0
			c0,15.3,0,30.1,0,44.9c-10.1-32.3-31.9-44.6-66.3-37.6c0,22.7,0,44.7,0,67.6c21.6,4.5,26.8-10.8,34.5-25.6c0,21.4,0,42.8,0,64.3
			c-6.2-14.7-11.2-30.5-34-28.8C1324.7,222.6,1324.7,246.4,1324.7,270.1z"/>
		<path d="M1702.2,226.3c0,19.1,0,34.8,0,51.8c-39.4,0-77.8,0-121.8,0c9.6-3.9,14.4-5.8,20-8.1c0-48.8,0-97.7,0-148
			c-5-1.9-10.4-3.8-15.7-5.8c0.3-1,0.5-2,0.8-3c36.8,0,73.7,0,111.8,0c0,15.6,0,30.4,0,45.6c-7.7-10.9-13.2-25.1-23.6-31.9
			c-11-7.1-26.7-7.2-44.4-11.3c0,15.8,0,27,0,38.2c0,11.4,0,22.8,0,34.1c21.9,0.7,25-1.9,35-25.9c0,21.9,0,43.7,0,65.6
			c-4.9-16.1-10.7-30.7-33.3-29.6c0,24.3,0,48.1,0,71.8C1669.8,277.8,1682.5,270.3,1702.2,226.3z"/>
		<path d="M549.1,122c-5-2.1-9.7-4-14.3-5.9c0.3-1.1,0.5-2.2,0.8-3.2c28.3,0,56.7-1.7,84.8,0.5c24.4,1.9,35,18.5,34.2,46.1
			c-0.8,25.5-12.4,39.5-36.5,42.4c-12,1.5-24.1,1.7-38,2.6c0,22.1,0,43.2,0,66c4.2,1.6,9.5,3.5,14.9,5.5c-0.3,0.8-0.6,1.7-0.8,2.5
			c-19.4,0-38.8,0-58.2,0c-0.3-0.9-0.5-1.9-0.8-2.8c4.6-2,9.2-4,14-6.1C549.1,220.2,549.1,171.5,549.1,122z M579.6,196.9
			c16.7,1.5,31.8,2.9,38.5-12c8.3-18.2,8.8-38.4-1.1-56.1c-8-14.4-23.2-9.6-37.5-9.2C579.6,146.1,579.6,170.8,579.6,196.9z"/>
		<path d="M1791.8,338.1c0,24.8,0,47.3,0,69.9c23.4-1.7,25.6-3.6,37.1-32.8c0,26,0,47.5,0,68.9c-6.4-16.7-14.6-29.8-37.2-26.5
			c0,24,0,47.9,0,71.5c39.5,8.4,55.1-0.2,78.2-44.5c0,18.6,0,34.4,0,52c-42.2,0-83.5,0-124.7,0c-0.3-0.6-0.5-1.2-0.8-1.8
			c4.5-1.6,9.1-3.3,14.5-5.2c0-49.2,0-98.7,0-149.8c-3.8-1.7-8.3-3.8-16.1-7.3c42.5,0,81.1,0,121.4,0c0,16.2,0,31.5,0,46.7
			C1852.8,344.1,1828.2,332.8,1791.8,338.1z"/>
		<path d="M649.3,488.7c0-50.5,0-99.3,0-149c-4.6-1.8-9-3.4-18.2-7c21.9,0,38.7,0,57.9,0c22.6,33.3,46.2,67.8,69.7,102.4
			c1.2-0.5,2.4-1,3.7-1.5c0-31.2,0-62.3,0-94.6c-6.1-1.5-11.9-3-17.7-4.4c0.1-0.7,0.2-1.5,0.3-2.2c13.4,0,26.8,0,40.2,0
			c0.1,0.7,0.3,1.4,0.4,2c-4.8,1.4-9.6,2.8-15.9,4.7c0,52.8,0,105.7,0,158.7c-1.5,0.7-3.1,1.5-4.6,2.2
			c-37.2-47.2-67.7-99.3-106.6-151.1c0,49.1,0,94.1,0,141c5.3,1.1,11.9,2.5,18.5,3.9c0,0.8-0.1,1.6-0.1,2.5c-14.1,0-28.3,0-46.4,0
			C639.3,492.8,644.7,490.6,649.3,488.7z"/>
		<path d="M794.5,159.9c-20-38.5-30.2-44.6-65.9-38.8c0,22.2,0,44.7,0,67.8c21.7,3.7,26.4-13,35.1-25.6c0,21.2,0,42.3,0,67.7
			c-8.8-16.6-11.3-37-35.5-31.8c0,23.6,0,47,0,70.1c43.4,10.6,57.6-5.5,71.5-43.5c0,19.4,0,35.2,0,52.3c-38.9,0-77.2,0-115.5,0
			c-0.2-0.8-0.4-1.5-0.7-2.3c4.6-1.7,9.3-3.4,14.7-5.4c0-48.8,0-97.6,0-148c-4.7-2-9.9-4.2-15.1-6.4c0.3-0.9,0.6-1.8,0.9-2.7
			c36.2,0,72.4,0,110.4,0C794.5,128.5,794.5,143.4,794.5,159.9z"/>
		<path d="M1310.7,490c4.4,1.3,9.3,2.7,14.1,4.2c-0.2,0.9-0.3,1.9-0.5,2.8c-20.5,0-40.9,0-61.4,0c-0.3-0.7-0.6-1.3-0.9-2
			c4.4-1.8,8.8-3.6,15-6.2c0-24.3,0-49.4,0-74.4c0-25,0-50,0-74.4c-32-6.3-42,9.7-53.9,43.4c0-16.5,0-32.9,0-50.5
			c47.1,0,92.6,0,139.6,0c0,17.5,0,33.7,0,49.8c-9.1-23.9-17.6-47.2-52-45.1C1310.7,387.6,1310.7,437.4,1310.7,490z"/>
		<path d="M910.4,337.2c0.7,13.9,1.3,25.7,1.9,37.5c-1.4,0.4-2.7,0.8-4.1,1.2c-2.6-5.3-4.4-11.3-8.1-15.7
			c-6.8-8-13.7-16.8-22.5-21.9c-12-6.9-25.5-1.7-31.3,9.8c-6.2,12.3-5.3,24.3,7.1,32.1c12.1,7.6,25.2,13.6,37.9,20.2
			c15.5,8.1,26.1,20.1,29.1,37.7c6.2,35.7-16.2,62.5-52.8,61.7c-14.7-0.3-29.3-4.3-45-6.8c0-16.9,0-31,0-49.7
			c4.2,9.8,6.5,16.1,9.6,22c8.4,16.4,20.1,27.8,40.2,27.3c14.2-0.4,24.9-5.2,29.2-20.2c4-14.1-1.9-24.3-12.9-31.2
			c-11.5-7.2-24.3-12.3-36.4-18.5c-16.9-8.7-28.8-21.1-30-41.4c-1.9-32.9,19.8-55.5,52.7-52.9C886.8,329.5,898.2,334.1,910.4,337.2z
			"/>
		<path d="M1040.5,490c5.5,1.3,11.2,2.7,16.9,4c-0.1,1-0.2,1.9-0.3,2.9c-21.1,0-42.3,0-63.4,0c-0.2-0.8-0.4-1.7-0.7-2.5
			c4.7-1.5,9.4-3,14-4.5c0-50.7,0-100.8,0-150.8c-29.2-2.5-39.4,6.3-51.9,41.6c0-15.4,0-30.8,0-47.6c45.7,0,91.3,0,138.1,0
			c0,17.1,0,33,0,51.3c-15.3-41-23.6-48.1-52.7-45.1C1040.5,388.9,1040.5,438.9,1040.5,490z"/>
		<path d="M1624.3,337.4c-34.8-1.5-45.2,20.2-53.5,45.3c0-16,0-31.9,0-49.6c46.4,0,91.9,0,139.1,0c0,16.3,0,32.5,0,49.5
			c-5.5-11.2-9.4-23.3-16.6-32.9c-8.1-10.8-20.6-14.6-35.9-10.8c0,50.2,0,100.2,0,151.2c5.2,1.2,10.4,2.4,15.6,3.6
			c0,0.9-0.1,1.8-0.1,2.7c-21.2,0-42.3,0-63.5,0c-0.1-0.8-0.3-1.5-0.4-2.3c5-1.4,9.9-2.7,15.2-4.2
			C1624.3,439.1,1624.3,389.1,1624.3,337.4z"/>
		<path d="M1409.6,339.7c-7.2-2.4-11.7-3.8-16.2-5.3c0.1-0.6,0.2-1.2,0.3-1.8c20.6,0,41.2,0,66.5,0c-8.9,3.4-13.8,5.3-20.3,7.8
			c0,40-0.9,80.2,0.4,120.2c0.7,22,14.7,32.3,37.7,32.2c23.7-0.1,39.2-11.5,39.8-33.1c1.2-40.1,0.3-80.3,0.3-121.1
			c-6.6-1.3-11.9-2.4-17.1-3.5c0.1-0.8,0.1-1.5,0.2-2.3c12.5,0,25,0,41.9,0c-7.8,3.1-11.7,4.6-17.6,7c0,33.6-0.1,68,0,102.4
			c0.1,20.8-0.9,42.3-22.9,51.6c-26,11-54.1,12.3-78.4-3.5c-8.2-5.3-13.3-20.4-14-31.3c-1.9-31.5-0.7-63.2-0.7-94.8
			C1409.5,356.2,1409.6,348.4,1409.6,339.7z"/>
		<path d="M1555.6,113.4c0,17.1,0,32.7,0,50.5c-5.5-12-8.9-23.3-15.2-32.5c-7.4-10.9-18.7-15.1-33.5-10.2c0,49.3,0,98.6,0,149
			c4.7,1.7,9.6,3.5,14.5,5.2c-0.1,0.9-0.3,1.8-0.4,2.7c-18.9,0-37.7,0-60.9,0c7.3-3.6,11.5-5.7,17.1-8.5c0-48.7,0-98,0-147.2
			c-26-6.2-32.3-0.9-49.2,42.8c0-18.8,0-34.6,0-51.8C1470,113.4,1511.4,113.4,1555.6,113.4z"/>
		<path d="M584.5,490c5,1.4,9.8,2.8,14.7,4.2c-0.1,0.8-0.3,1.6-0.4,2.4c-21.5,0-43,0-64.6,0c-0.1-1-0.2-2-0.2-3
			c5.3-1,10.5-2,16.9-3.2c0-50.7,0-100.7,0-151.2c-5.1-1.6-9.5-3-13.9-4.5c0.1-0.7,0.2-1.4,0.3-2.1c19.6,0,39.3,0,63.4,0
			c-7.7,3.1-11.5,4.7-16.2,6.6C584.5,388.9,584.5,439,584.5,490z"/>
		<path d="M1141.8,339.3c-5.2-1.8-9.1-3.2-12.9-4.6c0.1-0.6,0.2-1.2,0.3-1.8c19.5,0,39.1,0,61.9,0c-6.8,2.9-11.2,4.8-16.3,7.1
			c0,49.6,0,99.2,0,150.1c5.1,1.2,10.7,2.5,16.2,3.8c-0.1,1-0.2,1.9-0.3,2.9c-20.9,0-41.9,0-62.8,0c-0.2-1-0.4-2.1-0.3-2.1
			c4.5-1.6,9.1-3.1,14.3-4.8C1141.8,440.1,1141.8,390.5,1141.8,339.3z"/>
		<path d="M990,275.1c4.6-1.4,9.2-2.8,14.9-4.5c0-49.4,0-98.7,0-149.4c-5.1-1.5-10.2-3-15.4-4.5c0-0.9,0.1-1.8,0.1-2.6
			c19.3,0,38.6,0,61.6,0c-7,3.2-11.3,5.1-16.8,7.5c0,48.8,0,98.2,0,147.9c4.8,2.2,9.4,4.3,14.1,6.3c-0.3,0.9-0.6,1.7-0.9,2.6
			c-18.9,0-37.8,0-56.7,0C990.5,277.4,990.3,276.3,990,275.1z"/>
	</g>
</g>
</svg>
