<?xml version="1.0" encoding="UTF-8" standalone="no"?>
<svg
   xmlns:dc="http://purl.org/dc/elements/1.1/"
   xmlns:cc="http://creativecommons.org/ns#"
   xmlns:rdf="http://www.w3.org/1999/02/22-rdf-syntax-ns#"
   xmlns:svg="http://www.w3.org/2000/svg"
   xmlns="http://www.w3.org/2000/svg"
   xmlns:sodipodi="http://sodipodi.sourceforge.net/DTD/sodipodi-0.dtd"
   xmlns:inkscape="http://www.inkscape.org/namespaces/inkscape"
   version="1.1"
   id="svg886"
   xml:space="preserve"
   width="1185.0018"
   height="1636.5557"
   viewBox="-50 0 1285.0018 1636.5557"
   sodipodi:docname="vertcaps.svg"
   inkscape:version="1.0.1 (c497b03c, 2020-09-10)"><metadata
     id="metadata892"><rdf:RDF><cc:Work
         rdf:about=""><dc:format>image/svg+xml</dc:format><dc:type
           rdf:resource="http://purl.org/dc/dcmitype/StillImage" /><dc:title></dc:title></cc:Work></rdf:RDF></metadata><defs
     id="defs890"><clipPath
       clipPathUnits="userSpaceOnUse"
       id="clipPath904"><path
         d="M 0,0 H 443 V 650 H 0 Z"
         id="path902" /></clipPath><clipPath
       clipPathUnits="userSpaceOnUse"
       id="clipPath910"><path
         d="M 428.863,435.66 C 428.863,317.238 332.855,221.25 214.434,221.25 96,221.25 0,317.238 0,435.66 c 0,118.438 95.9961,214.442 214.434,214.442 118.421,0 214.429,-96.004 214.429,-214.442 z"
         id="path908" /></clipPath></defs><sodipodi:namedview
     pagecolor="#ffffff"
     bordercolor="#666666"
     borderopacity="1"
     objecttolerance="10"
     gridtolerance="10"
     guidetolerance="10"
     inkscape:pageopacity="0"
     inkscape:pageshadow="2"
     inkscape:window-width="1688"
     inkscape:window-height="1238"
     id="namedview888"
     showgrid="false"
     inkscape:zoom="0.12"
     inkscape:cx="-1056.728"
     inkscape:cy="821.8823"
     inkscape:window-x="316"
     inkscape:window-y="25"
     inkscape:window-maximized="0"
     inkscape:current-layer="g914"
     inkscape:document-rotation="0" /><g
     id="g894"
     inkscape:groupmode="layer"
     inkscape:label="ink_ext_XXXXXX"
     transform="matrix(1.3333333,0,0,-1.3333333,563.73867,865.2223)"><g
       id="g896"
       transform="scale(0.1)"><g
         id="g898"
         transform="matrix(20.6,0,0,20.6,-4228.0401,-6900.8326)"><g
           id="g900"
           clip-path="url(#clipPath904)"><g
             id="g906"
             clip-path="url(#clipPath910)"><path
               d="m 26.5156,414.828 c -16.1093,40.535 -22.43747,69.52 28.043,78.016 5.8516,1.14 23.0547,4.953 23.0547,4.953 0,0 21.3867,-99.106 -79.78908,-333.594 H 143.199 c 16.242,71.285 10.508,239.129 -3.652,346.547 l 98.961,21.664 c 0,0 38.695,-286.223 128.176,-368.211 h 69.296 l -1.355,146.735 c -69.297,67.023 -135.48,181.585 -142.043,232.445 l 142.043,29.765 -0.676,65.215 C 419.059,635.434 369.625,589.867 305.98,577.336 169.586,549.336 130.879,578.785 71.7578,567.141 24.957,559.918 -1.5,533.766 -1.5,533.766 L -65.1836,395.23 -1.5,397.902 c 8.63281,0 34.3281,0.782 28.0156,16.926 z M 448.16,117.535 H -17.3984 V 720 H 448.16 V 117.535"
               style="fill:#346fbf;fill-opacity:1;fill-rule:nonzero;stroke:none"
               id="path912" /></g></g></g><g
         id="g914"
         transform="scale(10)"><text
           transform="scale(1,-1)"
           style="font-variant:normal;font-weight:normal;font-size:383.908px;font-family:Garamond;-inkscape-font-specification:Garamond;writing-mode:lr-tb;fill:#346dbf;fill-opacity:1;fill-rule:nonzero;stroke:none;stroke-width:20.6"
           id="text918"
           x="-396.69989"
           y="572.35754"><tspan
             x="-396.69989 -173.07657 -29.490225 298.1796"
             y="572.35754"
             sodipodi:role="line"
             id="tspan916"
             style="font-style:normal;font-variant:normal;font-weight:normal;font-stretch:normal;font-family:'Adobe Garamond Pro';-inkscape-font-specification:'Adobe Garamond Pro';stroke-width:20.6">PIMS</tspan></text></g></g></g></svg>
