<?xml version="1.0" encoding="UTF-8"?><svg id="a" xmlns="http://www.w3.org/2000/svg" xmlns:xlink="http://www.w3.org/1999/xlink" viewBox="0 0 322.17 101.38"><defs><style>.e{fill:none;}.f,.g{fill:#0072bc;}.g{font-family:Garamond, Garamond;font-size:106.32px;letter-spacing:.02em;}.h{clip-path:url(#c);}</style><clipPath id="c"><path id="d" class="e" d="M98.24,51c0,25.57-20.73,46.3-46.3,46.3S5.63,76.57,5.63,51,26.36,4.69,51.94,4.69s46.3,20.73,46.3,46.3Z"/></clipPath></defs><g id="b"><g class="h"><path class="f" d="M102.4,119.69H1.88V-10.4h100.53V119.69ZM11.36,55.49c-3.48-8.75-4.84-15.01,6.06-16.84,1.26-.25,4.98-1.07,4.98-1.07,0,0,4.62,21.4-17.23,72.03h31.39c3.51-15.39,2.27-51.64-.79-74.83l21.37-4.68s8.36,61.8,27.68,79.51h14.96l-.29-31.69c-14.96-14.47-29.25-39.21-30.67-50.19l30.67-6.43-.15-14.08c-3.22.63-13.89,10.47-27.63,13.18-29.45,6.04-37.81-.31-50.58,2.2-10.11,1.56-15.82,7.21-15.82,7.21L0,56.27l5.31,2.88c1.86,0,7.41-.17,6.05-3.66Z"/></g></g><text class="g" transform="translate(114.31 70.67)"><tspan x="0" y="0">pims</tspan></text></svg>