<?xml version="1.0" encoding="utf-8"?>
<!-- Generator: Adobe Illustrator 17.1.0, SVG Export Plug-In . SVG Version: 6.00 Build 0)  -->
<svg version="1.2" baseProfile="tiny" id="Layer_2" xmlns="http://www.w3.org/2000/svg" xmlns:xlink="http://www.w3.org/1999/xlink"
	 x="0px" y="0px" viewBox="0 0 109.9 55" xml:space="preserve">
<rect x="0" y="0" fill="#C41230" width="109.9" height="55"/>
<path fill="#FFFFFF" d="M61.5,31.3c0.2-0.8,0.2-1,0.5-1.7c0.2-0.6,0.3-0.8,0.6-1.4c-1-0.4-1.4-0.5-2.2-0.7c-1.1-0.2-2.2-0.4-3.3-0.4
	c-2.4,0-4.1,0.6-5.4,1.9c-1.2,1.2-1.9,2.8-1.9,4.6c0,2,0.8,3.5,2.4,4.6c0.8,0.6,1.5,0.9,3.2,1.7c1.8,0.8,2.3,1.1,3.1,1.6
	c1.2,0.8,1.8,1.8,1.8,2.9c0,2.3-1.9,3.9-4.6,3.9c-1.2,0-2.4-0.3-3.6-0.9c-0.8-0.4-1.3-0.7-2.4-1.7c-0.3,1.6-0.4,2.1-1,3.4
	c1.6,0.8,2.3,1,4,1.2c0.9,0.1,1.6,0.2,2.3,0.2c3.1,0,5.4-1,6.9-2.9c1-1.3,1.5-2.7,1.5-4.2c0-1.1-0.3-2.2-0.8-3c-0.7-1-1.7-1.8-4-2.9
	c-3.2-1.6-3.7-1.9-4.5-2.4c-0.9-0.7-1.3-1.6-1.3-2.6c0-2,1.4-3.3,3.5-3.3c0.6,0,1.5,0.2,2.2,0.4C59.6,30.1,60.2,30.4,61.5,31.3z"/>
<path fill="#FFFFFF" d="M80.9,30.7c-0.1-0.7-0.1-1.3-0.1-1.6c0-0.5,0-0.9,0.2-1.7c-1.3,0.2-1.8,0.2-2.6,0.2h-3.5l-4.1,0l-2.3-0.1
	c0.1,2.7,0.2,3.8,0.2,5.5v1.9v7.6c0,2.5,0,4.1-0.1,4.9c-0.1,0.7-0.1,1.8-0.3,3.2c0.8-0.1,1.4-0.1,1.8-0.1c0.5,0,1.2,0,2.2,0.1
	c-0.2-3-0.2-3.5-0.2-7.6v-2.9h3.6c1.4,0,2.3,0.1,4.5,0.3c-0.1-0.7-0.1-1.3-0.1-1.6c0-0.4,0-0.9,0.2-1.8c-1.9,0.3-2.5,0.3-4.1,0.3
	h-4.1v-1.4v-4l0-1.4h3.7c0.9,0,2.4,0.1,3.6,0.2C79.8,30.6,80.3,30.6,80.9,30.7z"/>
<path fill="#FFFFFF" d="M90.3,27.4c-0.9,0.1-1.5,0.1-2,0.1c-0.4,0-1.1-0.1-2-0.2c0.1,1.3,0.2,1.8,0.2,2.9v1.7v1.8l0,8.2
	c0,3.3,0.1,4,0.9,5.3c0.5,0.8,1.2,1.5,2,2.1c1.6,1.1,3.4,1.5,6.6,1.5c3,0,4.8-0.4,6.5-1.6c2.4-1.7,2.9-3.2,2.9-8.8l0-5.4
	c0-0.4,0-1.6,0.1-3.5c0-1.4,0-2.5,0.1-3c0-0.2,0.1-0.6,0.1-1.1c-0.8,0.1-1.4,0.1-1.8,0.1c-0.4,0-1-0.1-1.7-0.1
	c0.1,1.2,0.2,1.7,0.2,2.7c0.1,1.4,0.1,3,0.1,4.8v5.4c0,3.8-0.1,4.6-0.8,5.7c-0.3,0.4-0.8,0.8-1.4,1.2c-1.2,0.7-2.4,1-4.2,1
	c-2.4,0-4.7-0.9-5.6-2.2c-0.7-1-0.7-1.4-0.8-5v-7c0-0.4,0-1,0.1-1.9c0-0.9,0-1.4,0-1.6C90.1,29.2,90.1,28.7,90.3,27.4z"/>
</svg>
