<svg id="Layer_1" data-name="Layer 1" xmlns="http://www.w3.org/2000/svg" viewBox="0 0 103.699 63.324"><defs><style>.cls-1{fill:#465ca0;fill-rule:evenodd;}</style></defs><title>delta</title><path class="cls-1" d="M103.447,31.167c-0.85-5.6-7.174-12.393-19.378-14.92a48.21,48.21,0,0,0-5.8-.893L84.886,0,73.9,4.224l-4.13,10.85a104.544,104.544,0,0,0-30.986,5.77C22.994,26.218,11.812,34.53,6.609,40.515c-4.626,5.2-6.018,8.913-6.475,10.134A1,1,0,0,0,.391,52a0.874,0.874,0,0,0,.7.084,1.314,1.314,0,0,0,.787-0.774l0.143-.326a33.507,33.507,0,0,1,7.01-9.465C14.125,36.29,25.314,28.593,40.1,24.108a92.633,92.633,0,0,1,27.871-4.325L62.55,34.039c-1.058.05-2.2,0.154-3.4,0.315a38.805,38.805,0,0,0-12.25,3.9c-4.219,2.1-9.436,6.314-10.232,11.249-1.073,4.71,1.685,9.125,7.2,11.5,5.315,2.419,13.119,2.974,21.967,1.56a64.9,64.9,0,0,0,23.071-8.232c6.145-3.683,10.877-8.4,12.978-12.943a16.332,16.332,0,0,0,1.563-10.215h0ZM53.166,58.692l7.715-2.966,15.206-35.3a14.434,14.434,0,0,1,1.783.465l1.119,0.329c11.255,2.843,13.469,9.462,13.9,12.174,0.639,2.874.194,11.558-9.317,17.61-9.223,6.218-26.325,10.485-36.134,6.674-4.567-1.637-7.115-4.872-6.665-8.45a6.886,6.886,0,0,1,.509-2.175c1.033-2.547,3.694-5.2,7.12-7.1a34.515,34.515,0,0,1,10.852-3.884c0.928-.161,1.82-0.285,2.665-0.374L53.166,58.692h0Z"/></svg>