<?xml version="1.0" encoding="utf-8"?>
<!-- Generator: Adobe Illustrator 18.0.0, SVG Export Plug-In . SVG Version: 6.00 Build 0)  -->
<svg version="1.2" baseProfile="tiny" id="Layer_1" xmlns="http://www.w3.org/2000/svg" xmlns:xlink="http://www.w3.org/1999/xlink"
	 x="0px" y="0px" viewBox="0 0 480 640" xml:space="preserve">
<g>
	<g>
		<path d="M233,174.5c7.2-29.5,26.6-68.8-22-102.1C167.6,42.6,65.6,23.4,22.4,59c45.4,18.6,45.3,96.7,101.1,122.2
			C162.3,199,204,199.8,233,174.5z"/>
		<g>
			<path d="M234.4,174.9c4.3-17.3,10.7-34.2,9.9-52.3c-1-22.5-15.4-39.9-33.4-52.1c-15.9-10.8-34.6-17.7-53-22.8
				c-21.2-6-43.3-9.3-65.3-9.4C68,38,41,42.1,21.3,58c-1,0.8-0.2,2.1,0.7,2.5c16.8,7.1,27.2,22.7,35.6,38.1
				c9.3,16.9,16.8,34.8,27.7,50.8c11.6,17.1,26.5,29.1,45.7,36.7c23.6,9.4,50.4,13,75,5.3c10.4-3.2,19.8-8.8,28.1-15.9
				c1.5-1.3-0.7-3.4-2.1-2.1c-21.3,18.2-49.3,22.1-76.2,16.9c-23.6-4.6-45.4-14.9-61-33.5C82,141.8,73.8,123.4,64.9,106
				c-7.6-15-16.1-31-29.8-41.3c-3.8-2.9-7.9-5.2-12.3-7.1c0.2,0.8,0.4,1.7,0.7,2.5C39.1,47.4,59.9,43,79.6,41.6
				c22.5-1.6,45.3,1.2,67.3,6.3c38.8,9,93.3,29.7,94.6,76.9c0.5,16.9-5.9,33-9.9,49.2C231.1,175.9,234,176.7,234.4,174.9z"/>
		</g>
	</g>
	<g>
		<path d="M238.3,227.7c0-39.9,17.1-86.9,38.4-129.3c7.8-15.5,22.6-41.5,16.9-59.7c-2.9-9.3-14.5-5.4-4.2-18.7
			c3.6-4.7,15.2-16.9,22.6-9.3c25.9,26.6-0.3,55.3-21,101.7c-9.3,20.7-20.2,38.8-28,66.4C253,214.1,261.2,232.5,238.3,227.7z"/>
		<g>
			<path d="M239.8,227.7c0.2-28.8,8.2-57,18.3-83.7c5.6-14.7,12.1-29.1,19.1-43.2c5.2-10.4,10.7-20.6,14.7-31.5
				c3.6-9.8,6.5-21.7,2.8-31.9c-1-2.8-3.2-4.7-5.6-6.3c-4.8-3.5-0.1-8.4,2.9-11.8c3.2-3.7,7.1-7.2,11.7-8.9
				c6.5-2.4,11.1,5.5,13.8,10.3c5.2,9.2,4.2,19.8,1.2,29.6c-5.5,18-16.1,34.5-24.3,51.4c-8.3,17.1-16.8,34.4-24.2,52
				c-7.3,17.4-11.7,35.3-14.4,54c-0.7,5.1-1.2,10.8-3.6,15.4c-2.6,5.1-8.8,4.3-13.5,3.3c-1.9-0.4-2.7,2.5-0.8,2.9
				c5.4,1.1,11.7,1.7,15.7-2.9c4.2-4.9,4.4-13,5.3-19.1c3.8-26.7,12.7-50.9,24.4-75.1c6-12.3,11.5-24.9,17.7-37.1
				c5.7-11.4,12-22.5,17-34.2c7.5-17.8,10-37.6-5.7-51.9c-5.8-5.3-14,0.4-18.6,4.5c-3.7,3.3-12,11.2-9.4,16.7c1,2.1,3.2,3.2,4.9,4.6
				c4.1,3.3,4.3,9.5,4.2,14.4c-0.2,11.9-5.7,23.7-10.7,34.3c-11.1,23.1-22.6,45.8-31.2,70c-8.4,23.8-14.5,48.9-14.6,74.3
				C236.8,229.6,239.8,229.6,239.8,227.7z"/>
		</g>
	</g>
	<g>
		<path d="M359.2,589.1C273,674,119.5,573.2,119.5,464.6c0-48.2,28.8-89.3,51.2-127.1c24.4-41.3-12.8-107.2,55.5-135
			c-93.2,20.5-45,90.9-73.2,133.1c-25.8,38.7-59,80.8-59,130.1C94,576.9,271.9,699.5,359.2,589.1z"/>
		<g>
			<path d="M358.2,588c-29.6,28.9-70.4,36.9-109.9,26.8c-39.4-10.1-74.7-36.1-98.5-68.6c-11.7-16-20.6-34.2-25.3-53.5
				c-5.8-23.9-3.5-48.4,4.2-71.6c8.7-26.3,23.6-50,37.8-73.5c5-8.2,9.7-16.1,12.2-25.4c2.2-8.1,2.9-16.5,3.4-24.8
				c1-17.1,0.3-34.4,4.7-51.1c5.5-20.6,20.6-34.3,39.9-42.4c1.7-0.7,1.1-3.3-0.8-2.9c-18.5,4.2-37.7,11.3-49.8,26.7
				c-8.8,11.2-11.8,25.4-12.9,39.3c-1.2,14.8-0.3,29.8-2.7,44.5c-3.3,19.7-16.6,34.8-27.4,51c-14.8,22.1-28.7,45.2-35.9,70.9
				c-5.7,20.2-5.8,41.2-0.7,61.5c9.2,36.2,33.2,68,61.2,92c28.3,24.3,63.6,42.3,101,46.2c37.3,3.9,72.9-10,97.7-38.2
				c1.4-1.6,2.8-3.3,4.1-4.9C361.5,588.7,359.4,586.5,358.2,588c-12.5,15.7-28.3,28.4-47.1,35.7c-17,6.6-35.5,8.3-53.6,6.4
				c-39-4.1-75.5-24.7-104-50.7c-27.7-25.3-50.4-59-56.6-96.5c-8.8-53.4,25.8-99.6,54-141.3c7.7-11.4,11.9-22.7,13.4-36.5
				c1.4-12.9,0.9-26,1.9-39c1.1-13.2,4.2-26.4,12.5-37c11.5-14.7,30.3-21.3,47.9-25.2c-0.3-1-0.5-1.9-0.8-2.9
				c-17.9,7.4-32.5,19.3-39.7,37.6c-6.4,16.2-6.1,34.2-6.8,51.3c-0.3,8.9-0.8,17.8-2.5,26.5c-1.8,9.4-5.7,17.4-10.6,25.6
				c-13.7,22.9-28.1,45.5-37.8,70.5c-8.8,22.5-12.6,46.7-9,70.7c2.9,19,10.4,37.1,20.3,53.5c20.4,33.4,52.5,60.1,88.8,74.7
				c21.7,8.8,45.5,12.8,68.8,9.7c23.9-3.1,45.7-14.3,62.9-31.1C361.7,588.8,359.5,586.7,358.2,588z"/>
		</g>
	</g>
</g>
</svg>
