<svg id="Layer_1" data-name="Layer 1" xmlns="http://www.w3.org/2000/svg" viewBox="0 0 29.586 27.377"><defs><style>.cls-1{fill:#231f20;}.cls-1,.cls-2{fill-rule:evenodd;}.cls-2{fill:#a7a9ac;}</style></defs><title>sandman</title><path class="cls-1" d="M20.6,0.86c-0.006.017-.01,0.033-0.016,0.05a16.39,16.39,0,0,0-3.762,1.008,9.506,9.506,0,0,0-4.97,4.81,6.124,6.124,0,0,0,1.616,6.93,1.092,1.092,0,0,0,.376.3,5.231,5.231,0,0,1-2.63,1.661c-3.947,1.117-7.418-2.656-7.83-6.25C2.93,5.518,5.815.856,12.169,0.149A23.211,23.211,0,0,1,20.6.86h0Z"/><path class="cls-1" d="M8.969,26.517a0.422,0.422,0,0,1,.014-0.05,16.456,16.456,0,0,0,3.763-1.008,9.5,9.5,0,0,0,4.969-4.807A6.125,6.125,0,0,0,16.1,13.72a1.1,1.1,0,0,0-.377-0.3,5.238,5.238,0,0,1,2.628-1.661c3.949-1.118,7.42,2.657,7.832,6.251,0.456,3.845-2.428,8.51-8.783,9.215a23.226,23.226,0,0,1-8.431-.711h0Z"/><path class="cls-2" d="M0.932,7.446A14.829,14.829,0,0,0,3.267,13a9.508,9.508,0,0,0,5.562,3.75,6.589,6.589,0,0,0,5.512-1.6,7.953,7.953,0,0,0,.591-0.632,0.069,0.069,0,0,0,.023.008,4.33,4.33,0,0,1,1.733,2.2c1.5,3.772-2.685,8.515-8.754,7.287a9.646,9.646,0,0,1-4.462-2.439C0.464,18.839-.355,14.845.13,10.855a32.8,32.8,0,0,1,.8-3.409h0Z"/><path class="cls-2" d="M28.654,19.879a14.8,14.8,0,0,0-2.337-5.557,9.49,9.49,0,0,0-5.56-3.747,6.583,6.583,0,0,0-5.511,1.6,6.915,6.915,0,0,0-.59.631L14.63,12.8A4.359,4.359,0,0,1,12.9,10.6c-1.5-3.774,2.684-8.518,8.751-7.288a9.657,9.657,0,0,1,4.464,2.439c3.006,2.741,3.826,6.734,3.341,10.722a33.386,33.386,0,0,1-.8,3.409h0Z"/></svg>