<?xml version="1.0" encoding="utf-8"?>
<!-- Generator: Adobe Illustrator 18.0.0, SVG Export Plug-In . SVG Version: 6.00 Build 0)  -->
<svg version="1.2" baseProfile="tiny" id="Layer_1" xmlns="http://www.w3.org/2000/svg" xmlns:xlink="http://www.w3.org/1999/xlink"
	 x="0px" y="0px" viewBox="0 0 1920 560" xml:space="preserve">
<g>
	<g>
		<polygon fill-rule="evenodd" fill="#005BA8" points="542,202.7 754.5,202.7 754.5,258.6 683.2,258.6 683.2,429 613.3,429 
			613.3,258.6 542,258.6 542,202.7 		"/>
		<path fill-rule="evenodd" fill="#005BA8" d="M787.1,429V202.7h116.5c21.6,0,38.1,1.8,49.5,5.6c11.4,3.7,20.7,10.5,27.7,20.6
			c7,10,10.5,22.2,10.5,36.6c0,12.6-2.7,23.4-8,32.5c-5.4,9.1-12.8,16.5-22.1,22.2c-6,3.6-14.2,6.6-24.6,8.9
			c8.3,2.8,14.4,5.6,18.2,8.4c2.5,1.8,6.3,5.8,11.2,11.9c4.9,6.1,8.2,10.7,9.8,14.1l33.8,65.6h-79l-37.4-69.2
			c-4.7-8.9-9-14.8-12.7-17.4c-5-3.5-10.8-5.2-17.1-5.2h-6.2V429H787.1L787.1,429z M857.3,294.4h29.5c3.2,0,9.3-1,18.5-3.1
			c4.6-0.9,8.4-3.3,11.4-7.1c2.9-3.8,4.4-8.2,4.4-13.1c0-7.3-2.3-12.9-6.9-16.8c-4.6-4-13.3-5.9-26.1-5.9h-30.7V294.4L857.3,294.4z"
			/>
		<polygon fill-rule="evenodd" fill="#005BA8" points="1034.8,202.7 1104.9,202.7 1104.9,429 1034.8,429 1034.8,202.7 		"/>
		<path fill-rule="evenodd" fill="#005BA8" d="M1302.3,202.7h69.8v134.9c0,13.4-2.1,26-6.3,37.9c-4.2,11.9-10.7,22.3-19.6,31.2
			c-8.9,8.9-18.2,15.1-28,18.8c-13.6,5-29.9,7.5-48.9,7.5c-11,0-23-0.7-36-2.3c-13-1.5-23.9-4.6-32.6-9.2
			c-8.7-4.6-16.8-11.1-24-19.5c-7.3-8.4-12.2-17.1-14.9-26.1c-4.3-14.4-6.5-27.1-6.5-38.3V202.7h69.8v138.2c0,12.4,3.4,22,10.2,28.9
			c6.9,7,16.3,10.4,28.5,10.4c12,0,21.5-3.4,28.3-10.3c6.8-6.8,10.2-16.5,10.2-29.1V202.7L1302.3,202.7z"/>
		<polygon fill-rule="evenodd" fill="#005BA8" points="1417.7,202.7 1509.6,202.7 1545.2,340.4 1580.5,202.7 1672.2,202.7 
			1672.2,429 1615.1,429 1615.1,256.5 1570.8,429 1519.1,429 1474.9,256.5 1474.9,429 1417.7,429 1417.7,202.7 		"/>
		<polygon fill-rule="evenodd" fill="#005BA8" points="1717.1,202.7 1890,202.7 1890,251.3 1787.3,251.3 1787.3,290.9 1875,290.9 
			1875,336.5 1787.3,336.5 1787.3,429 1717.1,429 1717.1,202.7 		"/>
	</g>
	<g>
		<path fill="#005BA8" d="M278.8,529c-92.9,0-177-61.8-204.6-150.4c-35.1-112.7,28-232.8,140.7-267.9c20.6-6.4,41.9-9.7,63.3-9.7
			c92.9,0,177,61.8,204.6,150.4c35.1,112.6-28,232.8-140.7,267.9C321.6,525.7,300.3,529,278.8,529L278.8,529z M278.3,108.6
			c-20.7,0-41.2,3.1-61.1,9.3C108.5,151.7,47.6,267.7,81.4,376.4c26.6,85.4,107.8,145.1,197.4,145.1c20.7,0,41.2-3.1,61.1-9.3
			c108.7-33.8,169.6-149.8,135.7-258.5C449.1,168.2,367.9,108.6,278.3,108.6L278.3,108.6z M279.9,474.6
			c-70.5,0-131.9-45.2-152.9-112.4c-12.7-40.7-8.7-83.9,11.2-121.8c19.9-37.9,53.3-65.7,93.9-78.4c15.4-4.8,31.3-7.2,47.4-7.2
			c70.5,0,131.9,45.2,152.9,112.4c26.2,84.2-21,174-105.1,200.2C311.8,472.1,295.9,474.6,279.9,474.6L279.9,474.6z M279.5,162.3
			c-15.3,0-30.4,2.3-45.1,6.9c-38.8,12.1-70.5,38.6-89.5,74.7c-19,36.1-22.8,77.3-10.7,116.1C153.8,423,213.7,467,279.9,467
			c15.3,0,30.4-2.3,45.1-6.9c80.2-25,125.2-110.6,100.2-190.8C405.5,206.3,345.6,162.3,279.5,162.3L279.5,162.3z"/>
	</g>
	<path fill-rule="evenodd" fill="#005BA8" d="M342.4,457.8c62.9-3.2,123-3.6,189-9.3l1.6,5.1c-47.6,5-93.4,15.7-137.3,32.1l15-11.7
		c30.3-11.2,66.1-18.7,98.2-20.3c-62.3,5.3-121.2,8.5-179.1,11.3L342.4,457.8L342.4,457.8z M447.8,445.6l3.1,30.7l47-13.2l-1.7-17.2
		L447.8,445.6L447.8,445.6z"/>
	<path fill-rule="evenodd" fill="#005BA8" d="M369.5,187.2c-34.3-52.8-64.6-104.7-102.5-159l3.6-3.9c28.2,38.7,60.3,73,96.4,102.9
		l-17.6-7.1c-24.9-20.6-49.2-48-66.7-75c35.7,51.3,68,100.7,99.4,149.5L369.5,187.2L369.5,187.2z M306.3,102l25-18l-34.9-34.1
		L282.3,60L306.3,102L306.3,102z"/>
	<path fill-rule="evenodd" fill="#005BA8" d="M121.6,299.1C93,355.2,63.2,407.4,35.2,467.4l-5.2-1.2c19.4-43.7,33.1-88.7,40.9-134.9
		l2.7,18.8C68.1,382,56.7,416.8,42,445.4c26.6-56.6,53.3-109.3,79.7-160.8L121.6,299.1L121.6,299.1z M79.4,396.6l-28.1-12.8
		l-12.1,47.3l15.8,7.2L79.4,396.6L79.4,396.6z"/>
	<path fill-rule="evenodd" fill="#005BA8" d="M272.7,322.2c0,0-63.6,92-67.1,111.7c-3.6,19.6-1.1,53.2,46.1,81.9
		c17.1,10.4,27.6,16,37.2,19.4c11,1.9,21.9-1.5,37.4-4.4c26.8-5,63.4-23,71.6-29.1c8.1-6.1,10.6-8,10.6-8l-8.2-10.9
		c0,0-23.9,15.8-46.7,16.6c-22.8,0.8-69.5-13.2-83.8-39c-14.2-25.7-0.9-68.6,1.6-90.7c2.6-22.1,6.8-45.2,6.8-45.2L272.7,322.2
		L272.7,322.2z"/>
	<path fill-rule="evenodd" fill="#005BA8" d="M269.3,314.8c0,0-111.5-9.1-130.3-2.3c-18.8,6.7-46.7,25.7-47.9,80.9
		c-0.4,20,0,31.9,1.8,41.9c3.8,10.5,12.2,18.3,22.5,30.2c17.8,20.7,51.7,43.4,61,47.5c9.3,4,12.2,5.1,12.2,5.1l5.4-12.6
		c0,0-25.6-12.8-37.7-32.1c-12.1-19.4-23.4-66.8-8.2-92.1c15.2-25.2,58.9-35.1,79.3-44c20.4-8.8,42.6-16.7,42.6-16.7L269.3,314.8
		L269.3,314.8z"/>
	<path fill-rule="evenodd" fill="#005BA8" d="M274,308.1c0,0-47.9-101.1-63.1-114c-15.2-12.9-45.6-27.5-94-1
		c-17.5,9.6-27.6,15.9-35.3,22.5c-7.2,8.6-9.7,19.7-14.9,34.6c-9,25.8-11.7,66.5-10.6,76.6c1.2,10.1,1.6,13.2,1.6,13.2l13.6-1.7
		c0,0-1.7-28.6,9-48.7c10.7-20.2,46.1-53.6,75.6-53.1c29.4,0.5,59.9,33.5,77.7,46.7c17.9,13.2,35.8,28.5,35.8,28.5L274,308.1
		L274,308.1z"/>
	<path fill-rule="evenodd" fill="#005BA8" d="M282.1,308.8c0,0,63.6-92,67.1-111.7c3.5-19.6,1.1-53.2-46.1-81.9
		c-17.1-10.4-27.6-16-37.2-19.4c-11-1.9-21.9,1.5-37.4,4.4c-26.8,5.1-63.4,23-71.6,29.1c-8.1,6.1-10.6,8-10.6,8l8.2,10.9
		c0,0,23.9-15.8,46.7-16.6c22.8-0.8,69.5,13.2,83.8,39c14.2,25.7,0.9,68.6-1.6,90.7c-2.6,22.1-6.8,45.2-6.8,45.2L282.1,308.8
		L282.1,308.8z"/>
	<path fill-rule="evenodd" fill="#005BA8" d="M285.5,316.2c0,0,111.5,9.1,130.3,2.3c18.8-6.7,46.7-25.7,47.9-80.9
		c0.4-20,0-31.9-1.8-41.9c-3.8-10.5-12.2-18.3-22.5-30.2c-17.8-20.7-51.6-43.5-61-47.5c-9.3-4-12.2-5.1-12.2-5.1l-5.4,12.6
		c0,0,25.6,12.8,37.7,32.1c12.1,19.4,23.3,66.8,8.2,92.1c-15.2,25.2-58.9,35.1-79.3,44c-20.4,8.8-42.6,16.7-42.6,16.7L285.5,316.2
		L285.5,316.2z"/>
	<path fill-rule="evenodd" fill="#005BA8" d="M280.9,322.9c0,0,47.9,101.1,63.1,114c15.2,12.9,45.6,27.5,94,1
		c17.5-9.6,27.6-15.9,35.3-22.6c7.2-8.5,9.7-19.7,14.9-34.5c9-25.8,11.8-66.5,10.6-76.6c-1.2-10.1-1.6-13.2-1.6-13.2l-13.6,1.7
		c0,0,1.7,28.6-9,48.7c-10.7,20.1-46.2,53.6-75.6,53.1c-29.4-0.5-59.9-33.5-77.7-46.7c-17.9-13.2-35.8-28.5-35.8-28.5L280.9,322.9
		L280.9,322.9z"/>
</g>
</svg>
