<?xml version="1.0" encoding="UTF-8" standalone="no"?>
<svg
   xmlns:dc="http://purl.org/dc/elements/1.1/"
   xmlns:cc="http://creativecommons.org/ns#"
   xmlns:rdf="http://www.w3.org/1999/02/22-rdf-syntax-ns#"
   xmlns:svg="http://www.w3.org/2000/svg"
   xmlns="http://www.w3.org/2000/svg"
   xmlns:sodipodi="http://sodipodi.sourceforge.net/DTD/sodipodi-0.dtd"
   xmlns:inkscape="http://www.inkscape.org/namespaces/inkscape"
   version="1.1"
   id="svg833"
   xml:space="preserve"
   width="3840"
   height="1173.7961"
   viewBox="0 0 3839.9999 1173.7961"
   sodipodi:docname="horizlcase.svg"
   inkscape:version="1.0.1 (c497b03c, 2020-09-10)"><metadata
     id="metadata839"><rdf:RDF><cc:Work
         rdf:about=""><dc:format>image/svg+xml</dc:format><dc:type
           rdf:resource="http://purl.org/dc/dcmitype/StillImage" /><dc:title></dc:title></cc:Work></rdf:RDF></metadata><defs
     id="defs837"><clipPath
       clipPathUnits="userSpaceOnUse"
       id="clipPath851"><path
         d="M 926.047,522.773 C 926.047,267.051 718.75,59.7813 463.035,59.7813 207.309,59.7813 0,267.051 0,522.773 0,778.504 207.297,985.82 463.035,985.82 c 255.715,0 463.012,-207.316 463.012,-463.047 z"
         id="path849" /></clipPath></defs><sodipodi:namedview
     pagecolor="#ffffff"
     bordercolor="#666666"
     borderopacity="1"
     objecttolerance="10"
     gridtolerance="10"
     guidetolerance="10"
     inkscape:pageopacity="0"
     inkscape:pageshadow="2"
     inkscape:window-width="2008"
     inkscape:window-height="1233"
     id="namedview835"
     showgrid="false"
     inkscape:zoom="0.05"
     inkscape:cx="-2033.4938"
     inkscape:cy="576.84248"
     inkscape:window-x="0"
     inkscape:window-y="25"
     inkscape:window-maximized="0"
     inkscape:current-layer="g855"
     inkscape:document-rotation="0" /><g
     id="g841"
     inkscape:groupmode="layer"
     inkscape:label="ink_ext_XXXXXX"
     transform="matrix(1.3333333,0,0,-1.3333333,1715.4796,656.30918)"><g
       id="g843"
       transform="scale(0.1)"><g
         id="g845"
         transform="matrix(9.3877765,0,0,9.3877765,-12866.097,-4366.618)"><g
           id="g847"
           clip-path="url(#clipPath851)"><path
             d="m 57.25,477.801 c -34.7812,87.512 -48.44141,150.097 60.563,168.449 12.636,2.469 49.781,10.691 49.781,10.691 0,0 46.191,-213.992 -172.30494,-720.3394 H 309.199 C 344.285,90.5391 331.891,452.957 301.313,684.91 l 213.703,46.77 c 0,0 83.57,-618.051 276.781,-795.0784 H 941.422 L 938.508,253.457 C 788.883,398.172 645.973,645.555 631.797,755.379 l 306.711,64.269 -1.473,140.829 C 904.879,954.148 798.148,855.762 660.715,828.68 366.184,768.23 282.602,831.824 154.949,806.668 53.8906,791.082 -3.23047,734.598 -3.23047,734.598 L -56.3203,470.039 -3.23047,441.23 c 18.63677,0 74.12107,1.688 60.48047,36.571 z M 967.719,-164.191 H -37.5625 V 1136.76 H 967.719 V -164.191"
             style="fill:#176fc1;fill-opacity:1;fill-rule:nonzero;stroke:none"
             id="path853" /></g></g><g
         id="g855"
         transform="scale(10)"><text
           transform="scale(1,-1)"
           style="font-variant:normal;font-weight:normal;font-size:998.126px;font-family:Garamond;-inkscape-font-specification:Garamond;writing-mode:lr-tb;fill:#176fc1;fill-opacity:1;fill-rule:nonzero;stroke:none;stroke-width:9.38778"
           id="text859"
           x="-266.37433"
           y="130.59871"><tspan
             x="-266.37433 262.88892 511.42642 1300.9395"
             y="130.59871"
             sodipodi:role="line"
             id="tspan857"
             style="font-style:normal;font-variant:normal;font-weight:normal;font-stretch:normal;font-family:'Adobe Garamond Pro';-inkscape-font-specification:'Adobe Garamond Pro';stroke-width:9.38778">pims</tspan></text></g></g></g></svg>
