<?xml version="1.0" encoding="UTF-8"?><svg id="art" xmlns="http://www.w3.org/2000/svg" viewBox="0 0 198.333 198.055"><defs><style>.cls-1{fill:none;}.cls-2{fill:#011e41;}</style></defs><rect class="cls-1" width="198.333" height="198.055"/><path class="cls-2" d="M99.333,87.624l5.278,38.287,17.346-28.985-7.36,31.882,18.7-17.891-9.738,23.619,15.559-11.611c-7.242,19.709-13.554,30.758-39.785,39.74h0c-26.232-8.982-32.543-20.032-39.785-39.74l15.559,11.611-9.738-23.619,18.7,17.891-7.36-31.882,17.346,28.985,5.278-38.287h0Z"/><path class="cls-2" d="M71.854,74.796c-7.948,0-12.695-4.253-12.695-11.4v-17.108h6.589v16.839c0,4.152,2.183,6.435,6.156,6.435,4.074,0,6.234-2.187,6.234-6.317v-16.957h6.633v16.994c0,7.103-4.949,11.513-12.918,11.513"/><path class="cls-2" d="M96.744,57.55h2.395c3.207,0,4.981-1.203,4.981-3.384,0-2.145-1.547-3.191-4.719-3.191h-2.656v6.574ZM96.744,69.64h2.836c2.563,0,5.609-.654,5.609-3.779,0-3.221-3.097-3.906-5.703-3.906h-2.742v7.685ZM99.58,74.322h-9.202v-28.034h9.339c6.828,0,10.589,2.651,10.589,7.445,0,2.524-1.316,4.465-3.828,5.655,3.368,1.189,5.078,3.413,5.078,6.629,0,5.359-4.25,8.305-11.977,8.305"/><path class="cls-2" d="M130.014,74.796c-9.074,0-14.933-5.666-14.933-14.453,0-8.683,6.074-14.523,15.112-14.523,3.352,0,6.172.66,8.621,2.02l.215.119-.985,5.709-.433-.289c-2.406-1.615-4.695-2.361-7.195-2.361-5.391,0-8.613,3.474-8.613,9.29,0,5.71,3.333,9.254,8.703,9.254,2.543,0,5.047-.764,7.653-2.332l.43-.258.929,5.325-.207.121c-2.676,1.532-5.976,2.379-9.296,2.379"/><path class="cls-2" d="M49.833,37.49v73.215c0,30.77,16.742,53.048,49.5,61.785,32.757-8.737,49.5-31.015,49.5-61.785V37.49H49.833ZM99.333,168.603c-30.969-8.773-45.75-29.219-45.75-58.367V41.24h91.5v68.996c0,29.148-14.782,49.594-45.75,58.367Z"/><path class="cls-2" d="M99.335,84.252c6.902,0,7.835,2.8,13.395,2.766,5.539.035,6.488-2.766,13.39-2.766s7.852,2.8,13.395,2.766v-6.428c-5.543.037-6.493-2.728-13.395-2.728s-7.851,2.766-13.39,2.728c-5.559.037-6.493-2.728-13.395-2.728s-7.836,2.766-13.395,2.728c-5.539.037-6.489-2.728-13.39-2.728s-7.856,2.766-13.395,2.728v6.428c5.539.035,6.492-2.766,13.395-2.766s7.852,2.8,13.39,2.766c5.559.035,6.492-2.766,13.395-2.766Z"/><path class="cls-2" d="M103.708,95.867c3.33.797,4.914,2.318,9.021,2.292,5.539.035,6.488-2.766,13.39-2.766s7.852,2.8,13.395,2.766v-6.428c-5.543.037-6.493-2.728-13.395-2.728s-7.851,2.766-13.39,2.728c-4.463.03-5.947-1.745-9.929-2.447l.907,6.583Z"/><path class="cls-2" d="M85.94,98.159c4.106.026,5.69-1.494,9.018-2.291l.907-6.583c-3.98.702-5.464,2.477-9.925,2.447-5.539.037-6.489-2.728-13.391-2.728s-7.856,2.766-13.395,2.728v6.428c5.539.035,6.492-2.766,13.395-2.766s7.852,2.8,13.391,2.766Z"/><path class="cls-2" d="M105.309,107.478c1.883.647,3.33,1.438,5.566,1.718l3.858-6.447c-.603.082-1.261.129-2.004.124-3.819.026-5.455-1.272-8.343-2.086l.922,6.691Z"/><path class="cls-2" d="M122.978,106.766c.902-.142,1.928-.23,3.141-.23,6.902,0,7.852,2.8,13.395,2.766v-6.428c-5.543.037-6.493-2.728-13.395-2.728-.583,0-1.121.021-1.626.057l-1.515,6.563Z"/><path class="cls-2" d="M75.688,106.766l-1.515-6.563c-.504-.036-1.041-.057-1.623-.057-6.903,0-7.856,2.766-13.395,2.728v6.428c5.539.035,6.492-2.766,13.395-2.766,1.211,0,2.237.088,3.138.23Z"/><path class="cls-2" d="M87.792,109.197c2.237-.28,3.684-1.07,5.566-1.718l.922-6.691c-2.886.815-4.522,2.111-8.34,2.085-.744.005-1.403-.042-2.007-.124l3.859,6.448Z"/></svg>